<?xml version="1.0" encoding="UTF-8"?>
<svg version="1.1" xmlns="http://www.w3.org/2000/svg" width="590" height="590">
<path d="M0 0 C1.63118327 -0.010195 1.63118327 -0.010195 3.29531974 -0.02059597 C6.90398553 -0.03944011 10.51230822 -0.03713947 14.12101746 -0.03465271 C16.72223848 -0.04363769 19.32345552 -0.05384763 21.92466736 -0.06518555 C28.23402384 -0.08998175 34.54329618 -0.09834418 40.85269735 -0.10002268 C45.98108164 -0.10145274 51.10943838 -0.10763968 56.23781395 -0.11712456 C70.79591554 -0.14349992 85.35395108 -0.15738804 99.91207675 -0.15513314 C100.69500667 -0.15501327 101.4779366 -0.1548934 102.28459167 -0.1547699 C103.0684824 -0.15464726 103.85237312 -0.15452461 104.66001811 -0.15439826 C117.38399771 -0.15317703 130.10771179 -0.18194331 142.83161453 -0.224185 C155.91420075 -0.26727355 168.99665734 -0.28799616 182.07931632 -0.28540367 C189.4174513 -0.28440832 196.75530714 -0.29262622 204.09337807 -0.32493782 C210.98744528 -0.35510232 217.88091301 -0.35425079 224.77500916 -0.33238792 C227.30541532 -0.32924554 229.83585803 -0.33636796 232.3662014 -0.3544693 C235.81888882 -0.37757141 239.26952579 -0.36373943 242.72216797 -0.34057617 C243.72469394 -0.35600686 244.72721991 -0.37143755 245.76012546 -0.38733584 C251.63376156 -0.30016743 254.90589183 0.635857 259.19750422 4.72408921 C262.45466321 8.78198367 262.92677022 12.14528466 262.79362488 17.22145081 C262.28725028 21.63640434 260.22511792 23.80275417 256.98112488 26.65113831 C252.79572714 29.65603925 249.48222042 29.61733764 244.46354675 29.72413635 C243.13912567 29.75613223 243.13912567 29.75613223 241.78794861 29.78877449 C238.69620272 29.85876347 235.6043835 29.91817037 232.51237488 29.97535706 C231.39911331 29.99690039 230.28585175 30.01844372 229.13885498 30.04063988 C203.80816935 30.50765736 178.47731967 30.43180026 153.14350891 30.36670542 C149.75694383 30.35815584 146.37037784 30.35034785 142.98381042 30.34278488 C121.86437041 30.29548136 100.74496408 30.24386447 79.62565613 30.15431213 C69.09445766 30.10975745 58.56332081 30.07955871 48.0320363 30.06545466 C42.50408553 30.05743686 36.97637746 30.04215244 31.44851685 30.00878334 C26.28666869 29.97763346 21.12511155 29.96526237 15.96317291 29.96700096 C14.08187315 29.96432094 12.20056777 29.95484725 10.31934357 29.93777466 C-2.72638589 29.82454489 -15.39212209 30.08848588 -25.94465637 38.89332581 C-27.93361792 40.87714792 -29.22804583 42.87983081 -30.45637512 45.40113831 C-30.97200012 46.20551331 -31.48762512 47.00988831 -32.01887512 47.83863831 C-34.84221633 52.8715509 -35.70663205 57.34009866 -35.71364403 63.07732773 C-35.7171501 63.72621358 -35.72065618 64.37509943 -35.7242685 65.04364848 C-35.73356238 67.21504225 -35.72866448 69.38616663 -35.72380066 71.55757141 C-35.72753794 73.13129877 -35.73213978 74.70502428 -35.7375313 76.27874684 C-35.74976716 80.60130711 -35.74950014 84.92379001 -35.74714255 89.24636364 C-35.74673453 93.90908184 -35.75777215 98.57177518 -35.76725769 103.23448181 C-35.78387206 112.36910519 -35.78936744 121.50370275 -35.79048245 130.63833997 C-35.79143275 138.06374477 -35.79554215 145.48914105 -35.8018837 152.91454315 C-35.81949758 173.9673778 -35.82872238 195.02019206 -35.82722275 216.07303414 C-35.82714284 217.20804679 -35.82706292 218.34305945 -35.82698059 219.51246643 C-35.82689883 220.64886516 -35.82681707 221.78526389 -35.82673283 222.95609894 C-35.82591997 241.37213087 -35.8450573 259.78808099 -35.87325732 278.20408925 C-35.90198506 297.11396084 -35.91579767 316.02379253 -35.91406977 334.93368649 C-35.91340582 345.54995505 -35.91890057 356.16613787 -35.94042587 366.78238678 C-35.95863623 375.82165058 -35.9629862 384.86078977 -35.94940703 393.90006396 C-35.94287657 398.51093847 -35.942763 403.12157392 -35.96011353 407.73242569 C-35.9758459 411.95675461 -35.97297902 416.18065494 -35.95554526 420.40497342 C-35.95247572 421.92986287 -35.95610608 423.45478433 -35.96726541 424.97963604 C-36.03651543 435.11687289 -34.96135275 443.04058429 -29.33137512 451.65113831 C-13.99639243 466.31938262 7.55589485 463.55703754 27.21159363 463.53395081 C29.26508597 463.53462651 31.31857824 463.53559874 33.37207031 463.53684998 C37.6472806 463.53831343 41.9224698 463.53621563 46.19767761 463.5315094 C51.64402785 463.52580204 57.0903289 463.52910615 62.53667736 463.53508186 C66.76716475 463.53871492 70.99764068 463.53753652 75.22812843 463.53495407 C77.23533954 463.53429295 79.24255174 463.53508432 81.24976158 463.53743362 C93.60962603 463.60508999 93.60962603 463.60508999 105.93547058 462.83033752 C115.78593401 462.19055053 125.68172312 462.97235997 135.54362488 463.40113831 C135.54362488 426.44113831 135.54362488 389.48113831 135.54362488 351.40113831 C131.91362488 351.73113831 128.28362488 352.06113831 124.54362488 352.40113831 C99.50032839 353.79243256 74.32038597 344.84331098 55.54362488 328.40113831 C54.84882019 327.83781799 54.1540155 327.27449768 53.43815613 326.69410706 C39.79166745 315.42321602 30.07968128 298.41646006 25.54362488 281.40113831 C25.17458794 280.04148201 25.17458794 280.04148201 24.7980957 278.65435791 C22.26950163 268.26877456 22.08706474 258.31555593 22.11003113 247.67848206 C22.10545693 245.80149143 22.10014773 243.92450247 22.09414673 242.04751587 C22.0852718 238.13691856 22.08757545 234.2265261 22.09757996 230.31593323 C22.10908326 225.33785479 22.08880832 220.36048433 22.05966282 215.38249874 C22.0412054 211.51397312 22.04161183 207.6456144 22.04730034 203.77705574 C22.04745228 201.94288195 22.04151514 200.10869591 22.02900887 198.27456474 C21.94413396 183.79554345 23.03874335 171.11538696 32.54362488 159.40113831 C33.04507019 158.77594299 33.5465155 158.15074768 34.06315613 157.50660706 C41.01309652 149.74499479 51.85770115 144.95769628 62.15690613 144.10035706 C75.14466021 144.05921317 83.38582555 146.1961031 93.54362488 154.40113831 C94.19460144 154.92578674 94.845578 155.45043518 95.51628113 155.99098206 C103.44107771 163.11459041 107.42560485 173.13643463 107.98674011 183.59474182 C108.02613708 184.45897766 108.06553406 185.3232135 108.10612488 186.21363831 C108.15003357 187.13781555 108.19394226 188.0619928 108.23918152 189.01417542 C108.50923966 195.70326728 108.56550979 202.37995399 108.53581238 209.07301331 C108.5308802 210.34957039 108.5308802 210.34957039 108.52584839 211.6519165 C108.50647384 215.93625391 108.47249608 220.2198782 108.41886902 224.50392151 C107.61840402 242.09223481 107.61840402 242.09223481 114.54362488 257.40113831 C121.00894092 263.58535365 125.98835405 264.49775841 134.54362488 264.40113831 C134.54509144 263.65129103 134.546558 262.90144375 134.548069 262.12887383 C134.58522074 243.83116853 134.64434574 225.53365283 134.72752762 207.23609734 C134.7672323 198.38729956 134.79966813 189.53858961 134.81462097 180.68971252 C134.82768214 172.97145881 134.85475979 165.25339904 134.89823794 157.5352546 C134.92075302 153.45356472 134.93654159 149.37211316 134.93550873 145.29035568 C134.93475616 141.43737001 134.95294232 137.58490914 134.98479271 133.73205948 C134.99321351 132.32858937 134.99509577 130.92505985 134.98942757 129.52157593 C134.92714472 111.70768949 140.1417782 96.57951426 152.36003113 83.43238831 C155.42189485 80.58414298 158.73714073 78.26996965 162.24674988 76.00660706 C164.62995068 74.44532859 164.62995068 74.44532859 166.66471863 72.24098206 C169.18879807 69.76937828 171.073964 69.8093337 174.54362488 69.40113831 C175.53362488 69.07113831 176.52362488 68.74113831 177.54362488 68.40113831 C192.22995323 64.1404892 208.13465367 66.48713752 221.54362488 73.40113831 C224.69372375 75.22721125 227.63134945 77.21834546 230.54362488 79.40113831 C231.13530457 79.81621643 231.72698425 80.23129456 232.33659363 80.65895081 C243.90752109 89.50263449 250.40211288 104.22484147 253.11730576 118.14721298 C254.06770158 125.40120862 253.8014313 132.76605466 253.77067566 140.06959534 C253.77011081 141.95281976 253.77042955 143.83604463 253.77156067 145.7192688 C253.77213229 150.80739636 253.76040889 155.89542879 253.74641275 160.98353434 C253.73387356 166.30997638 253.73273238 171.63642084 253.73036194 176.96287537 C253.72415653 187.03840597 253.70775843 197.11389294 253.68766296 207.18940437 C253.66527471 218.66462344 253.65430318 230.13984463 253.64427209 241.61508012 C253.62339136 265.21045699 253.58823368 288.8057952 253.54362488 312.40113831 C255.63767114 311.95148724 257.72975749 311.49270189 259.82096863 311.03004456 C261.56881653 310.64828064 261.56881653 310.64828064 263.35197449 310.25880432 C268.41680604 308.89777371 270.85914524 307.19099685 273.63894653 302.58705139 C277.3356409 294.67234455 277.10057903 286.83218613 277.06004524 278.27822876 C277.04729222 275.56913828 277.05881635 272.86104848 277.07608032 270.1519928 C277.10266097 265.37517781 277.10838066 260.5986125 277.10697937 255.82173157 C277.10474307 248.17822216 277.11910926 240.53502166 277.16256523 232.89163208 C277.17232531 230.23834084 277.16372834 227.58554649 277.15386963 224.93226624 C277.17260723 210.79289699 279.38657725 199.68824608 288.91862488 188.65113831 C289.78487488 187.90863831 290.65112488 187.16613831 291.54362488 186.40113831 C292.10565613 185.91000549 292.66768738 185.41887268 293.24674988 184.91285706 C303.17503167 176.78054493 313.91664366 175.18329008 326.39128113 176.14820862 C338.8030171 177.60675654 347.81534157 185.23771764 355.36784363 194.68238831 C357.95456093 198.53652296 358.97669936 201.75234904 359.54362488 206.40113831 C360.20362488 206.73113831 360.86362488 207.06113831 361.54362488 207.40113831 C362.61321364 212.6351655 362.6868043 217.78479188 362.67301941 223.09938049 C362.67564789 224.36188126 362.67564789 224.36188126 362.67832947 225.64988708 C362.68270899 228.41595051 362.67982268 231.18194929 362.67643738 233.94801331 C362.67711179 235.88463859 362.67808296 237.8212638 362.67933655 239.75788879 C362.68080846 243.8128083 362.67867618 247.86770574 362.67399597 251.92262268 C362.66831428 257.09478398 362.67157101 262.26689321 362.67756844 267.43905258 C362.68120078 271.43871953 362.68002296 275.43837436 362.67744064 279.43804169 C362.67677796 281.34363562 362.67757652 283.24923069 362.6799202 285.1548233 C362.69822667 304.23048928 362.69822667 304.23048928 361.54362488 313.40113831 C360.88362488 313.40113831 360.22362488 313.40113831 359.54362488 313.40113831 C359.42116394 314.42078674 359.298703 315.44043518 359.17253113 316.49098206 C357.55913452 326.5221001 353.35157596 335.35776373 348.13517761 343.95802307 C346.16450356 346.96035237 346.16450356 346.96035237 345.54362488 350.40113831 C343.89866629 352.08923392 342.2280394 353.75241053 340.54362488 355.40113831 C339.10658584 357.15547976 337.69001681 358.92677381 336.29362488 360.71363831 C320.46492251 380.12914022 297.02674865 391.72163274 272.35612488 395.02613831 C266.10300111 395.5133947 259.81570393 395.40113831 253.54362488 395.40113831 C253.87362488 417.51113831 254.20362488 439.62113831 254.54362488 462.40113831 C262.76139832 462.38373596 262.76139832 462.38373596 271.14518738 462.36598206 C274.70899071 462.36084601 278.2727892 462.35603041 281.83659363 462.35231018 C287.43865457 462.34643356 293.04069855 462.33964993 298.64274597 462.32569885 C319.82765549 462.27430342 340.98634123 462.38598569 362.16194153 463.06506348 C387.81557025 464.7406992 387.81557025 464.7406992 410.41862488 454.65113831 C415.26580752 450.0694374 419.25729729 444.16102752 419.6707834 437.28726417 C419.67181522 436.46343071 419.67284705 435.63959725 419.67391014 434.79079914 C419.67934666 433.36278932 419.67934666 433.36278932 419.68489301 431.90593082 C419.68382476 430.85789741 419.68275651 429.80986401 419.68165588 428.73007202 C419.68447716 427.61834348 419.68729844 426.50661494 419.69020522 425.36119765 C419.698573 421.6164476 419.69989134 417.87172703 419.70133972 414.12696838 C419.70600636 411.44988297 419.71108297 408.77280157 419.71673584 406.09571838 C419.7282667 400.32047501 419.7365084 394.54523455 419.74285507 388.76998329 C419.75317875 379.63958434 419.77374223 370.50922182 419.79597473 361.37884521 C419.80345469 358.2552501 419.81086841 355.13165482 419.8182621 352.0080595 C419.82103795 350.83706491 419.82103795 350.83706491 419.82386988 349.64241386 C419.84480178 340.75364261 419.86362714 331.86486733 419.8815155 322.97608948 C419.88315368 322.16344663 419.88479187 321.35080379 419.88647969 320.5135354 C419.91275383 307.35005549 419.93140298 294.18657278 419.94810741 281.02307776 C419.96553497 267.50796288 419.99438823 253.99290297 420.03299677 240.47783202 C420.05638298 232.14232055 420.07039011 223.80689874 420.07232441 215.47135421 C420.07443563 209.75627868 420.08738026 204.04129225 420.10880373 198.32625673 C420.12081774 195.03007361 420.12635937 191.73410256 420.12209129 188.43789482 C420.11819934 184.86077713 420.13264338 181.28418169 420.15162659 177.7071228 C420.14609689 176.67024301 420.1405672 175.63336321 420.13486993 174.56506282 C420.19057058 168.48422508 420.9291527 163.92204392 423.54362488 158.40113831 C427.96515761 154.0901439 432.07641848 152.88917527 438.11784363 152.90895081 C442.61791166 153.82200809 445.57486305 157.05370788 448.54362488 160.40113831 C449.71318275 162.74025404 449.67455031 164.11590775 449.68508339 166.7227335 C449.69117453 167.63584815 449.69726568 168.54896279 449.7035414 169.48974758 C449.70603174 171.00443053 449.70603174 171.00443053 449.70857239 172.54971313 C449.71421593 173.61748519 449.71985947 174.68525724 449.72567403 175.78538603 C449.74346896 179.38784894 449.75411674 182.99029822 449.76481628 186.5927887 C449.77602666 189.16645487 449.78765866 191.74011924 449.79968262 194.31378174 C449.82818491 200.59709126 449.8512829 206.88040969 449.87246038 213.16374774 C449.88978731 218.27750195 449.90902177 223.39124567 449.92962265 228.50498772 C449.93255124 229.23250381 449.93547984 229.96001991 449.93849718 230.70958195 C449.94445442 232.18764947 449.95041563 233.66571697 449.95638077 235.14378446 C450.01216681 249.02474049 450.0617999 262.90571341 450.10938577 276.78669965 C450.15026996 288.66967609 450.19653061 300.55262161 450.24674988 312.43556213 C450.30510118 326.24311889 450.35993148 340.05068258 450.40935075 353.8582744 C450.41464843 355.33553376 450.41995104 356.81279309 450.42525864 358.29005241 C450.42917339 359.38016696 450.42917339 359.38016696 450.43316723 360.49230402 C450.45170077 365.58592333 450.47271381 370.67952887 450.49472427 375.77313423 C450.52440164 382.65704897 450.54836023 389.54096462 450.5686245 396.42491341 C450.57687269 398.94143333 450.58690023 401.4579482 450.59891319 403.97445297 C450.84520127 456.52275938 450.84520127 456.52275938 432.91862488 475.77613831 C420.70172809 487.16858194 404.7588074 493.48722982 388.11743164 493.60447693 C387.26779762 493.61417539 386.41816359 493.62387384 385.54278308 493.63386619 C382.68477409 493.66508606 379.82675255 493.68923586 376.96867371 493.71315002 C374.90653139 493.7335662 372.84439192 493.75427137 370.78225517 493.77524185 C365.11542836 493.83106148 359.44856075 493.87963254 353.7816503 493.92610407 C350.16732759 493.95599808 346.5530214 493.98746846 342.93871498 494.01926804 C284.43407679 494.52823678 225.92936016 494.55526714 167.422933 494.53060016 C156.45266201 494.52606453 145.48240158 494.52696761 134.51213074 494.5315094 C121.46166289 494.5369106 108.41120118 494.53894632 95.36073238 494.53589714 C93.96252207 494.53557884 92.56431176 494.53526447 91.16610146 494.53495407 C90.47968671 494.5347998 89.79327196 494.53464552 89.08605677 494.53448657 C84.3782177 494.53364309 79.67038398 494.5350875 74.96254539 494.53743362 C50.68602071 494.54785855 26.41517154 494.54004461 2.14445496 493.95533752 C1.29597343 493.93592551 0.4474919 493.91651349 -0.42670119 493.89651322 C-2.76163916 493.84116701 -5.0962459 493.77874004 -7.4309082 493.71287537 C-8.72572711 493.67706297 -10.02054602 493.64125057 -11.35460186 493.60435295 C-14.45637512 493.40113831 -14.45637512 493.40113831 -17.45637512 492.40113831 C-17.78637512 493.06113831 -18.11637512 493.72113831 -18.45637512 494.40113831 C-18.45637512 493.41113831 -18.45637512 492.42113831 -18.45637512 491.40113831 C-19.36387512 491.35988831 -20.27137512 491.31863831 -21.20637512 491.27613831 C-33.11257524 489.52027445 -44.73183715 480.50274938 -52.08918762 471.29566956 C-60.09213332 460.20587338 -64.5694744 448.42110486 -64.5905962 434.66082859 C-64.59294843 434.00499886 -64.59530066 433.34916912 -64.59772417 432.67346576 C-64.60437483 430.47847082 -64.60395714 428.28353562 -64.60354614 426.08853149 C-64.60684722 424.4977449 -64.61057331 422.90695914 -64.61468762 421.31617445 C-64.62468803 416.94627941 -64.62842126 412.57639811 -64.63107693 408.20649326 C-64.63498582 403.49256044 -64.64456377 398.77863843 -64.65328979 394.06471252 C-64.67303799 382.68105913 -64.68311847 371.29740487 -64.69201759 359.91373864 C-64.6964033 354.54966385 -64.70176939 349.18559005 -64.70700645 343.82151604 C-64.72401732 325.98432273 -64.73851068 308.14713002 -64.7457552 290.30992985 C-64.74766501 285.6826992 -64.74958536 281.05546855 -64.75154114 276.42823792 C-64.75202488 275.27819766 -64.75250862 274.12815741 -64.75300702 272.94326746 C-64.76130431 254.32045562 -64.78663682 235.69770807 -64.81912182 217.0749243 C-64.85221927 197.9446807 -64.8702064 178.81446974 -64.87339944 159.68419737 C-64.87556207 148.94759759 -64.88427465 138.21109156 -64.90986061 127.47451973 C-64.93160433 118.32927214 -64.93959998 109.18414109 -64.92989383 100.03887058 C-64.92535974 95.37674102 -64.92718331 90.71485172 -64.94665527 86.05275536 C-64.96436377 81.77574603 -64.96322747 77.49915087 -64.94775798 73.22213667 C-64.94539351 71.68369623 -64.94964449 70.14522651 -64.96158663 68.6068306 C-65.10061319 49.49707446 -60.07082716 32.70409422 -46.7928009 18.51564026 C-42.20525612 13.87576904 -37.15537569 10.51286254 -31.45637512 7.40113831 C-30.78090637 7.00410706 -30.10543762 6.60707581 -29.40950012 6.19801331 C-20.32040241 1.16520713 -10.22669261 -0.04792471 0 0 Z M177.54362488 103.40113831 C176.47112488 104.16426331 175.39862488 104.92738831 174.29362488 105.71363831 C167.04350462 112.79898311 165.49152203 120.96557072 165.29752922 130.8028574 C165.28916914 133.31961838 165.29177488 135.83643062 165.30311584 138.35317993 C165.30224256 139.75925554 165.30048933 141.16533083 165.29793751 142.5714044 C165.29348407 146.41624593 165.30143997 150.26097518 165.31149364 154.10580242 C165.32015483 158.25905712 165.31720609 162.41230582 165.31568909 166.56556702 C165.31464192 173.75510208 165.3209009 180.94460075 165.33216476 188.13412666 C165.34843965 198.52888621 165.35362981 208.92362822 165.35614075 219.31839912 C165.36051473 236.1844491 165.37381578 253.0504797 165.39274597 269.91651917 C165.41111245 286.29737756 165.4252652 302.67823068 165.4337616 319.05909729 C165.43428704 320.06932428 165.43481249 321.07955127 165.43535386 322.1203912 C165.43796399 327.18855561 165.44049139 332.25672006 165.44297767 337.32488453 C165.46370092 379.35031594 165.49891837 421.37572601 165.54362488 463.40113831 C166.53362488 463.40113831 167.52362488 463.40113831 168.54362488 463.40113831 C170.34013767 463.42899 172.1366015 463.46004863 173.93302917 463.49293518 C175.03394394 463.51295593 176.1348587 463.53297668 177.26913452 463.55360413 C178.45670853 463.57547791 179.64428253 463.59735168 180.86784363 463.61988831 C182.69265007 463.65318237 182.69265007 463.65318237 184.55432129 463.68714905 C188.44659387 463.75822339 192.33885939 463.82967659 196.23112488 463.90113831 C198.86719213 463.94934031 201.50325983 463.9975177 204.139328 464.04566956 C210.60743221 464.16387342 217.07553067 464.28238849 223.54362488 464.40113831 C223.61229306 421.36775029 223.66515472 378.33436859 223.69682087 335.30093664 C223.70057298 330.22032344 223.70445595 325.13971034 223.7084198 320.05909729 C223.7096002 318.54191087 223.7096002 318.54191087 223.71080444 316.99407422 C223.72385797 300.61719275 223.74751154 284.24034288 223.77508327 267.86348016 C223.8031389 251.05902426 223.81980148 234.25458492 223.82589036 217.45010656 C223.83000647 207.08104279 223.84300646 196.71206833 223.86737428 186.34303205 C223.8832334 179.23237527 223.88802483 172.12176466 223.88412901 165.01109148 C223.88220775 160.90875046 223.88515087 156.8065655 223.9012413 152.70425224 C223.91587636 148.94548957 223.91655399 145.18698742 223.90632156 141.42821258 C223.9044606 139.43064449 223.91736695 137.43307932 223.9308688 135.43555599 C223.87691496 124.60719691 221.78631797 115.72319603 214.54362488 107.40113831 C204.25698859 98.91058137 189.1186133 94.94780547 177.54362488 103.40113831 Z M58.54362488 178.40113831 C52.61453669 184.3302265 52.42769333 189.3739026 52.38249207 197.45362854 C52.37752716 198.13266739 52.37256226 198.81170624 52.3674469 199.51132202 C52.35292007 201.74413599 52.34603606 203.97687871 52.34049988 206.20973206 C52.3376725 206.97985186 52.33484512 207.74997166 52.33193207 208.54342842 C52.31697111 212.62612877 52.30772451 216.70879413 52.3033905 220.79151917 C52.29793768 224.96687017 52.2739689 229.14188982 52.24541855 233.31713772 C52.22659623 236.56293605 52.2215761 239.80865806 52.22005463 243.0545063 C52.21706701 244.59117997 52.20917394 246.1278536 52.19586945 247.66447258 C52.09043683 260.78760999 52.88795393 274.06097436 59.29362488 285.83863831 C59.82077087 286.84217346 59.82077087 286.84217346 60.35856628 287.86598206 C68.62851098 303.1312788 84.50072448 314.59188601 101.00846863 319.61598206 C105.5213653 320.61829391 110.01443995 321.25889148 114.60612488 321.77613831 C115.82815613 321.92176208 115.82815613 321.92176208 117.07487488 322.07032776 C123.93286436 322.71429297 128.31464554 321.71549818 135.54362488 320.40113831 C135.54362488 312.81113831 135.54362488 305.22113831 135.54362488 297.40113831 C131.47603679 296.58762069 127.59472717 296.08369375 123.48112488 295.65113831 C112.47473893 294.28812254 103.88132125 289.99640938 94.82096863 283.75660706 C92.55567167 282.14540933 92.55567167 282.14540933 89.54362488 282.40113831 C89.76405457 281.81719299 89.98448425 281.23324768 90.21159363 280.63160706 C90.78628648 278.37601047 90.78628648 278.37601047 89.46940613 276.57691956 C88.93702332 275.96203674 88.4046405 275.34715393 87.85612488 274.71363831 C79.20443604 263.85386183 78.2556837 251.79324978 78.26922989 238.3042984 C78.27020877 236.15094977 78.25709894 233.99808195 78.24024963 231.84480286 C78.19435788 225.73080463 78.169353 219.61686593 78.1627655 213.50270081 C78.15774184 209.7432459 78.13346696 205.98430837 78.09743881 202.22502899 C78.0876774 200.80098328 78.08528884 199.37686616 78.0906105 197.95279694 C78.09770774 195.9625782 78.07826829 193.97231898 78.05778503 191.98219299 C78.054935 190.8531958 78.05208496 189.72419861 78.04914856 188.56098938 C77.42307597 184.64762938 75.99715751 182.48133319 73.54362488 179.40113831 C68.26480296 176.10187461 64.12600398 175.40571537 58.54362488 178.40113831 Z M309.73112488 212.90113831 C306.90055361 216.47659674 307.38550864 220.68594763 307.37004089 225.00270081 C307.36335388 225.77550888 307.35666687 226.54831696 307.34977722 227.34454346 C307.33572666 229.02400639 307.32383262 230.70348843 307.31382942 232.38298035 C307.29738706 235.04950288 307.27414298 237.71588629 307.24893188 240.38233948 C307.17828027 247.9645438 307.11832948 255.54680771 307.06681824 263.12916565 C307.03482077 267.76872548 306.99348485 272.40812934 306.94662285 277.04756165 C306.93071492 278.80799011 306.91834236 280.56845451 306.90971565 282.32893372 C306.82673294 299.03520438 305.75626283 314.62775645 294.10612488 327.77613831 C286.43002929 334.73259994 274.86735254 340.30563483 264.54362488 341.40113831 C263.06635925 341.56162659 263.06635925 341.56162659 261.55924988 341.72535706 C258.89060639 341.98612552 256.21727855 342.198076 253.54362488 342.40113831 C253.54362488 349.66113831 253.54362488 356.92113831 253.54362488 364.40113831 C266.18079867 364.67609679 266.18079867 364.67609679 278.54362488 362.40113831 C279.62128113 362.09434143 280.69893738 361.78754456 281.80924988 361.47145081 C298.41993283 356.16627673 313.95359531 344.18764428 322.37565613 328.70191956 C322.76108582 327.94266174 323.1465155 327.18340393 323.54362488 326.40113831 C323.91874207 325.71406799 324.29385925 325.02699768 324.68034363 324.31910706 C329.83602427 314.60189485 331.68060983 305.10298613 331.72062683 294.11427307 C331.72719803 293.31655487 331.73376923 292.51883667 331.74053955 291.69694519 C331.76011816 289.07881046 331.77189718 286.4607325 331.78190613 283.84254456 C331.78598166 282.94324659 331.79005718 282.04394863 331.79425621 281.11739922 C331.81504589 276.36196503 331.82938107 271.60655914 331.83879089 266.85108948 C331.8498721 261.95421312 331.88431205 257.057789 331.92396259 252.16107273 C331.95015393 248.38027119 331.9584847 244.59957744 331.96207237 240.81869316 C331.96692765 239.01385869 331.97851132 237.20902869 331.99711037 235.40428352 C332.02156809 232.87495869 332.02052568 230.34680597 332.01359558 227.81739807 C332.02640564 227.0810463 332.0392157 226.34469452 332.05241394 225.58602905 C331.99895433 220.20254155 330.64862785 215.84900512 327.54362488 211.40113831 C320.99912628 207.03813924 315.69588648 207.96478387 309.73112488 212.90113831 Z " fill="#C06E33" transform="translate(97.45637512207031,76.59886169433594)"/>
<path d="M0 0 C14.28585699 11.28446275 23.68062001 25.49309213 26.52734375 43.6640625 C28.1860396 62.35332152 22.91675379 78.71938775 10.96875 93.1953125 C-0.37729688 105.34126621 -16.54004817 114.30910981 -33.2890625 115.0625 C-51.75718208 115.49849308 -67.65643542 111.41567377 -81.94921875 99.01171875 C-93.38703858 87.98891415 -101.69685453 73.2939969 -102.375 57.17578125 C-102.48528861 48.37199262 -102.48477934 40.07408829 -99.07421875 31.82421875 C-98.70296875 30.92606445 -98.70296875 30.92606445 -98.32421875 30.00976562 C-90.96547104 12.72011534 -78.68284744 -0.70520398 -61.08984375 -8.14453125 C-39.9090465 -15.38770544 -18.41791787 -13.03529892 0 0 Z M-65.875 26.21484375 C-74.13158665 36.01129114 -76.03760669 46.37935816 -75.07421875 58.82421875 C-72.26472061 70.57170578 -65.67361555 78.97896011 -55.59375 85.46484375 C-48.50512874 89.2894022 -40.06828914 91.09072118 -32.07421875 89.82421875 C-26.07399966 88.01165257 -19.80788895 86.08909553 -15.07421875 81.82421875 C-15.07421875 81.16421875 -15.07421875 80.50421875 -15.07421875 79.82421875 C-14.48769531 79.76363281 -13.90117187 79.70304687 -13.296875 79.640625 C-8.05841923 77.7164822 -5.53882936 70.46666306 -2.95703125 65.80859375 C0.68830196 57.82357814 -0.02412269 47.93675003 -2.82421875 39.82421875 C-4.4937821 35.8149152 -6.43259906 32.2913446 -9.07421875 28.82421875 C-9.69296875 27.95796875 -10.31171875 27.09171875 -10.94921875 26.19921875 C-16.7352922 19.73243077 -25.69244098 15.27701255 -34.32421875 14.55078125 C-47.10017022 14.2047659 -56.49998397 17.21724383 -65.875 26.21484375 Z " fill="#C16E33" transform="translate(514.07421875,67.17578125)"/>
<path d="M0 0 C4.91660676 2.88190933 8.76228017 6.45727714 12.75 10.5 C13.61431641 11.35271484 13.61431641 11.35271484 14.49609375 12.22265625 C15.04910156 12.77824219 15.60210937 13.33382812 16.171875 13.90625 C16.6678418 14.40447266 17.16380859 14.90269531 17.67480469 15.41601562 C21.04076402 19.439292 21.44819217 22.80097082 21 28 C19.18602527 33.13959507 16.91624028 35.63292134 12 38 C7.41451732 38.80533567 4.05380568 38.52690284 -0.125 36.4375 C-3.63929181 33.45799173 -6.89155447 30.40051424 -10 27 C-10.58652344 26.37996094 -11.17304688 25.75992188 -11.77734375 25.12109375 C-15.603053 20.66526769 -16.85171155 17.22930038 -16.453125 11.33203125 C-15.75749139 7.75191687 -14.46720484 5.66198417 -12 3 C-7.94891762 0.35798975 -4.8162435 -0.70236884 0 0 Z " fill="#C16F33" transform="translate(410,33)"/>
<path d="M0 0 C3.13681952 1.65095764 5.23481988 3.99135348 7.375 6.8125 C8.39169076 10.37091767 8.81206708 13.40004909 8 17 C6.09460169 20.40030889 3.64097818 23.14830547 1 26 C0.16984375 26.89847656 -0.6603125 27.79695313 -1.515625 28.72265625 C-9.03169991 36.54252461 -9.03169991 36.54252461 -14 38 C-19.42788168 37.80262248 -22.78398454 36.4129649 -27 33 C-28.63344967 28.09965098 -29.28740632 22.76475783 -27.046875 17.953125 C-25.49702511 15.79758665 -23.83472949 13.92176599 -22 12 C-21.56059082 11.53851563 -21.12118164 11.07703125 -20.66845703 10.6015625 C-9.17252485 -1.38744073 -9.17252485 -1.38744073 0 0 Z " fill="#C16F34" transform="translate(554,34)"/>
<path d="M0 0 C1.36705759 1.27801553 2.72121293 2.56996393 4.0625 3.875 C4.70960938 4.4834375 5.35671875 5.091875 6.0234375 5.71875 C13.85538967 13.25328626 13.85538967 13.25328626 14.22265625 17.90234375 C13.99682502 23.18679455 12.4456343 27.3099027 9.0703125 31.39453125 C5.73609763 33.85302821 2.68683623 33.71894723 -1.3359375 33.3828125 C-10.15180748 31.66199704 -17.03395989 21.98438795 -21.9375 14.875 C-23.1286252 11.04638329 -23.02997666 9.16784276 -21.8125 5.3125 C-19.46532297 1.00934211 -17.23817227 -2.29911765 -12.5 -4 C-7.09716958 -4.2635527 -4.11776061 -3.54540778 0 0 Z " fill="#C16F34" transform="translate(544.9375,169.125)"/>
<path d="M0 0 C0.82435547 -0.01160156 1.64871094 -0.02320312 2.49804688 -0.03515625 C8.76381859 -0.00510459 13.12194498 1.12202755 17.75 5.625 C19.85810246 9.06042624 20.36797959 11.3428164 20.4375 15.375 C18.86291689 20.53613352 17.04807507 23.52083448 12.4375 26.375 C8.31571832 27.47852665 4.31546441 27.54093324 0.0625 27.5625 C-1.20335937 27.57667969 -2.46921875 27.59085938 -3.7734375 27.60546875 C-9.33180025 27.26738277 -13.28057977 26.5454489 -17.4375 22.75 C-19.91874101 18.80920545 -20.98807917 16.02162967 -20.5625 11.375 C-19.71733187 8.28709812 -18.71833871 5.7580472 -16.5625 3.375 C-11.01285178 0.27768675 -6.27661821 -0.0887503 0 0 Z " fill="#C16F34" transform="translate(568.5625,102.625)"/>
<path d="M0 0 C3.14588913 1.67958487 5.26554725 3.99847353 7.375 6.875 C8.32425152 10.10245516 8.3465354 12.65015781 8 16 C5.24380525 20.75296292 1.83273036 24.44557869 -2.0625 28.25 C-2.85624023 29.04277344 -2.85624023 29.04277344 -3.66601562 29.8515625 C-10.17639446 36.28842388 -10.17639446 36.28842388 -15.8125 36.375 C-20.60987978 36.28395484 -23.31978696 35.22018641 -27 32 C-29.21666876 28.67499687 -29.77137913 26.96276172 -30 23 C-28.03315787 17.07832477 -25.08989193 13.52382673 -20.625 9.25 C-20.06039063 8.68667969 -19.49578125 8.12335938 -18.9140625 7.54296875 C-13.1612095 1.90996686 -8.31862228 -1.58170987 0 0 Z " fill="#C16F33" transform="translate(423,166)"/>
<path d="M0 0 C0.825 -0.02449219 1.65 -0.04898438 2.5 -0.07421875 C8.38756392 -0.10225477 11.80987598 0.94897386 16.625 4.375 C19.30480735 8.17859753 20.226772 11.66133939 20.046875 16.34765625 C19.28739432 19.99738285 17.26952609 22.8000667 14.625 25.375 C9.89634975 28.214524 5.11770847 27.74300168 -0.25 27.75 C-1.23097656 27.77449219 -2.21195312 27.79898438 -3.22265625 27.82421875 C-9.25819275 27.84865412 -12.82394845 27.46435067 -17.375 23.375 C-20.03882785 18.9066436 -20.91803681 15.35232563 -20.015625 10.30078125 C-18.65424042 6.20832639 -16.10276226 3.31976888 -12.2890625 1.234375 C-8.17324647 0.02059548 -4.27003087 0.00660995 0 0 Z " fill="#C06E32" transform="translate(384.375,104.625)"/>
<path d="M0 0 C3.97110161 1.8245602 3.97110161 1.8245602 5.73046875 3.24609375 C7.43151977 8.32217816 6.99580783 13.83278223 7.04296875 19.12109375 C7.07197266 20.19746094 7.10097656 21.27382812 7.13085938 22.3828125 C7.18109738 28.65096987 7.0408159 32.53966065 2.73046875 37.24609375 C-1.52605987 40.08377949 -5.27235291 39.88336999 -10.26953125 39.24609375 C-14.41522057 37.17324909 -16.52580406 35.49192333 -18.26953125 31.24609375 C-18.78740483 28.1630149 -18.87125947 25.05447558 -19.01953125 21.93359375 C-19.07496094 21.10408203 -19.13039063 20.27457031 -19.1875 19.41992188 C-19.53229189 12.80096233 -19.29262671 7.57265353 -14.76953125 2.37109375 C-10.25533296 -1.4659748 -5.56546794 -1.8487699 0 0 Z " fill="#C26F34" transform="translate(485.26953125,191.75390625)"/>
<path d="M0 0 C3.37604652 2.04191311 6.22195185 4.44390371 8 8 C8.29539232 11.74353743 8.27804015 15.49617406 8.3125 19.25 C8.34150391 20.28769531 8.37050781 21.32539063 8.40039062 22.39453125 C8.45177145 28.58394434 8.24042913 32.34920676 4 37 C-0.92189241 40.08824622 -4.31466136 40.2257628 -9.7890625 39.12890625 C-13.17649183 37.39928244 -15.33734369 35.38016566 -17 32 C-17.69934576 27.9824739 -17.65338708 24.06781073 -17.5625 20 C-17.57345703 18.93265625 -17.58441406 17.8653125 -17.59570312 16.765625 C-17.53820948 10.6023062 -17.27957414 6.58903188 -13 2 C-9.01781019 -0.70191971 -4.64651219 -0.92149317 0 0 Z " fill="#C16E33" transform="translate(482,4)"/>
<path d="M0 0 C0.33 0 0.66 0 1 0 C0.89290406 20.06187237 0.78016877 40.12370541 0.66066074 60.18550777 C0.60530757 69.4998796 0.5518222 78.81425525 0.50268555 88.12866211 C0.4598693 96.24407766 0.41359788 104.35946476 0.36312145 112.47483641 C0.33649982 116.77458118 0.31164632 121.07432023 0.29092598 125.37409782 C0.27139165 129.41645607 0.24725769 133.45876007 0.21950912 137.50107002 C0.21012165 138.98903039 0.20245252 140.47700268 0.19658089 141.96498108 C0.18834851 143.98778103 0.17348289 146.01055083 0.15821838 148.03330994 C0.14853956 149.73540068 0.14853956 149.73540068 0.1386652 151.4718771 C0 154 0 154 -1 155 C-2.80927281 155.12487758 -4.62396107 155.17570846 -6.4375 155.1875 C-7.42621094 155.20167969 -8.41492188 155.21585938 -9.43359375 155.23046875 C-12 155 -12 155 -14 153 C-10.37 152.67 -6.74 152.34 -3 152 C-2.99668985 151.24093479 -2.99337971 150.48186958 -2.98996925 149.6998024 C-2.90878492 131.23874764 -2.81670749 112.77777672 -2.71247292 94.31683731 C-2.66232936 85.38930224 -2.61588664 76.46177643 -2.578125 67.53417969 C-2.54520652 59.75381343 -2.5053761 51.9735187 -2.45720994 44.19323134 C-2.43194351 40.07279626 -2.41016266 35.95240862 -2.39665604 31.83191681 C-2.38383698 27.95447523 -2.36178431 24.07719637 -2.33261681 20.19984436 C-2.32353981 18.77604175 -2.31785051 17.35221293 -2.31578636 15.92838287 C-2.31246487 13.98544175 -2.29581322 12.04253699 -2.2784729 10.09967041 C-2.27294214 9.01195469 -2.26741138 7.92423897 -2.26171303 6.80356216 C-2.00229558 4.02459107 -1.43539237 2.36472801 0 0 Z " fill="#BA6128" transform="translate(235,189)"/>
<path d="M0 0 C1.40022545 0.00769538 2.80045357 0.01491663 4.20068359 0.02172852 C9.40492328 0.05440474 14.60861048 0.12010151 19.8125 0.1875 C20.95612 0.2018811 22.09973999 0.21626221 23.27801514 0.2310791 C31.82783707 0.33995461 40.37739705 0.46187965 48.9268837 0.5941124 C50.91815498 0.62470282 52.90944065 0.65435127 54.90072632 0.68399048 C82.2489183 1.10140066 82.2489183 1.10140066 95.8125 2.1875 C95.8125 2.5175 95.8125 2.8475 95.8125 3.1875 C54.5625 3.1875 13.3125 3.1875 -29.1875 3.1875 C-29.1875 2.8575 -29.1875 2.5275 -29.1875 2.1875 C-19.37647938 0.6681132 -9.94417395 -0.10217052 0 0 Z " fill="#B5571F" transform="translate(379.1875,539.8125)"/>
<path d="M0 0 C1.98 0 3.96 0 6 0 C5.67 0.66 5.34 1.32 5 2 C18.365 2.495 18.365 2.495 32 3 C32 40.62 32 78.24 32 117 C19.79 117 7.58 117 -5 117 C-5 116.67 -5 116.34 -5 116 C7.18774993 114.47945538 18.50299536 115.45665197 31 116 C31 79.04 31 42.08 31 4 C27.37 4.33 23.74 4.66 20 5 C11.50075108 5.33549667 3.38958866 4.25284524 -5 3 C-5 2.67 -5 2.34 -5 2 C-3.35 1.67 -1.7 1.34 0 1 C0 0.67 0 0.34 0 0 Z " fill="#D4934C" transform="translate(202,424)"/>
<path d="M0 0 C9.65776879 0.89344998 16.59711511 9.06205977 22.5625 16.17578125 C23.036875 16.77777344 23.51125 17.37976563 24 18 C24.55300781 18.67933594 25.10601563 19.35867187 25.67578125 20.05859375 C27.34540848 22.50639532 27.24179224 24.09849307 27 27 C25.03289306 24.56061408 23.08670162 22.11604388 21.2109375 19.60546875 C15.84955662 12.54441606 9.8506449 6.87520793 2.19921875 2.33984375 C1.47347656 1.89769531 0.74773437 1.45554687 0 1 C0 0.67 0 0.34 0 0 Z " fill="#C16A2E" transform="translate(505,64)"/>
<path d="M0 0 C1.11181641 0.00322266 2.22363281 0.00644531 3.36914062 0.00976562 C4.51962891 0.01814453 5.67011719 0.02652344 6.85546875 0.03515625 C8.02529297 0.03966797 9.19511719 0.04417969 10.40039062 0.04882812 C13.28130233 0.06058695 16.16210919 0.07702199 19.04296875 0.09765625 C15.61852817 3.52209683 12.13299882 3.222667 7.40625 3.23632812 C6.70886719 3.23181641 6.01148438 3.22730469 5.29296875 3.22265625 C4.58011719 3.22072266 3.86726563 3.21878906 3.1328125 3.21679688 C-1.65082112 3.1774434 -6.24309156 2.88331286 -10.95703125 2.09765625 C-10.95703125 1.76765625 -10.95703125 1.43765625 -10.95703125 1.09765625 C-7.23814259 0.23439615 -3.81406637 -0.01955931 0 0 Z " fill="#C57228" transform="translate(477.95703125,539.90234375)"/>
<path d="M0 0 C0.33 0.99 0.66 1.98 1 3 C0.41476562 3.55171875 -0.17046875 4.1034375 -0.7734375 4.671875 C-3.77998967 7.81556814 -6.01922409 11.33472287 -8.4140625 14.953125 C-8.93742187 15.62859375 -9.46078125 16.3040625 -10 17 C-10.66 17 -11.32 17 -12 17 C-12.2475 17.61875 -12.495 18.2375 -12.75 18.875 C-14.20628639 21.35068687 -15.37812506 21.95125002 -18 23 C-17.401875 22.278125 -16.80375 21.55625 -16.1875 20.8125 C-14.02441932 18.14919674 -14.02441932 18.14919674 -12.59375 15.6484375 C-10.40871528 12.01742392 -7.90993635 8.63753116 -5.42578125 5.20703125 C-3.81912176 3.1579297 -3.81912176 3.1579297 -4 1 C-2 0 -2 0 0 0 Z " fill="#BF6328" transform="translate(423,402)"/>
<path d="M0 0 C0.92039062 0.29003906 0.92039062 0.29003906 1.859375 0.5859375 C0.7396764 1.59186993 -0.3865662 2.5905224 -1.515625 3.5859375 C-2.45535156 4.42125 -2.45535156 4.42125 -3.4140625 5.2734375 C-5.140625 6.5859375 -5.140625 6.5859375 -7.140625 6.5859375 C-7.3675 7.1221875 -7.594375 7.6584375 -7.828125 8.2109375 C-9.57444556 11.37094613 -11.7809099 13.8536358 -14.140625 16.5859375 C-14.8671875 14.8671875 -14.8671875 14.8671875 -15.140625 12.5859375 C-12.31620308 8.34183261 -5.50099159 -1.06406042 0 0 Z " fill="#BF682E" transform="translate(259.140625,154.4140625)"/>
<path d="M0 0 C1.98 0 3.96 0 6 0 C5.67 0.66 5.34 1.32 5 2 C10.94 2.33 16.88 2.66 23 3 C15.5883546 7.94109693 3.35721155 4.24801026 -5 3 C-5 2.67 -5 2.34 -5 2 C-3.35 1.67 -1.7 1.34 0 1 C0 0.67 0 0.34 0 0 Z " fill="#CD8342" transform="translate(202,424)"/>
<path d="M0 0 C4.875 4.625 4.875 4.625 6 8 C6.66 8 7.32 8 8 8 C8 8.66 8 9.32 8 10 C8.61875 10.268125 9.2375 10.53625 9.875 10.8125 C12 12 12 12 14 15 C8.25 14.25 8.25 14.25 6 12 C5.01 11.67 4.02 11.34 3 11 C2.87625 10.21625 2.7525 9.4325 2.625 8.625 C2.20882007 5.85942178 2.20882007 5.85942178 0 4 C0 2.68 0 1.36 0 0 Z " fill="#CA6533" transform="translate(184,348)"/>
<path d="M0 0 C0.33 0 0.66 0 1 0 C2.99118241 4.97011673 3.24845695 9.12333135 3.125 14.375 C3.11597656 15.11105469 3.10695313 15.84710938 3.09765625 16.60546875 C3.07430144 18.4037888 3.03843836 20.20193911 3 22 C2.34 22 1.68 22 1 22 C0.67 24.31 0.34 26.62 0 29 C-1.01548288 25.76549898 -0.96773311 23.22692818 -0.5625 19.875 C-0.14565931 16.44523255 -0.14565931 16.44523255 0 13 C0 8.66666667 0 4.33333333 0 0 Z " fill="#C6763B" transform="translate(456,368)"/>
<path d="M0 0 C0.33 0 0.66 0 1 0 C1.12117188 0.71027344 1.24234375 1.42054688 1.3671875 2.15234375 C1.53476562 3.07144531 1.70234375 3.99054688 1.875 4.9375 C2.03742188 5.85402344 2.19984375 6.77054688 2.3671875 7.71484375 C2.57601563 8.46894531 2.78484375 9.22304687 3 10 C3.66 10.33 4.32 10.66 5 11 C5.37872934 12.65694085 5.70250054 14.32656552 6 16 C6.64389782 18.00744615 7.30562253 20.00945124 8 22 C5 21 5 21 3.61328125 18.84765625 C0.56466372 12.32013583 -0.70231786 7.19485634 0 0 Z " fill="#BB6027" transform="translate(414,128)"/>
<path d="M0 0 C3.73724772 0.55153215 5.2235991 1.96149761 7.625 4.8125 C8.21539062 5.49957031 8.80578125 6.18664062 9.4140625 6.89453125 C12.270532 10.68674076 13.26509935 13.22821165 13 18 C10.90250253 15.25520361 8.95175248 12.45400844 7.0625 9.5625 C4.85917484 6.23278666 2.5688084 3.06281001 0 0 Z " fill="#BC6328" transform="translate(189,232)"/>
<path d="M0 0 C0.53625 0.474375 1.0725 0.94875 1.625 1.4375 C1.295 2.4275 0.965 3.4175 0.625 4.4375 C0.08359375 3.94636719 -0.4578125 3.45523438 -1.015625 2.94921875 C-3.94741283 1.0707388 -5.67799691 1.12689275 -9.125 1.25 C-10.10984375 1.27707031 -11.0946875 1.30414063 -12.109375 1.33203125 C-12.85703125 1.36683594 -13.6046875 1.40164062 -14.375 1.4375 C-14.045 0.4475 -13.715 -0.5425 -13.375 -1.5625 C-8.43392006 -2.87043293 -4.36023124 -2.86857318 0 0 Z " fill="#BE672B" transform="translate(543.375,167.5625)"/>
<path d="M0 0 C4.25511108 0.25030065 6.54945765 0.66209323 10 3.25 C12 6 12 6 11.8125 8.8125 C11.544375 9.534375 11.27625 10.25625 11 11 C8.2160817 9.60804085 8.02101003 7.84424221 7 5 C4.69 4.67 2.38 4.34 0 4 C0 2.66666667 0 1.33333333 0 0 Z " fill="#C57539" transform="translate(346,77)"/>
<path d="M0 0 C3.61621957 1.20540652 4.06985695 2.2255028 6.0625 5.375 C6.56910156 6.16648437 7.07570312 6.95796875 7.59765625 7.7734375 C8.06042969 8.50820313 8.52320313 9.24296875 9 10 C9.99 11.485 9.99 11.485 11 13 C10.67 13.99 10.34 14.98 10 16 C0 3.42465753 0 3.42465753 0 0 Z " fill="#BD6226" transform="translate(155,362)"/>
<path d="M0 0 C0.33 0.66 0.66 1.32 1 2 C-0.2578125 4.53125 -0.2578125 4.53125 -2.125 7.5 C-2.72570312 8.4796875 -3.32640625 9.459375 -3.9453125 10.46875 C-6.16783328 13.20676039 -7.65885934 14.02887261 -11 15 C-10.34 14.01 -9.68 13.02 -9 12 C-8.34 12 -7.68 12 -7 12 C-6.9175 11.29875 -6.835 10.5975 -6.75 9.875 C-5.82123251 6.31472462 -4.19727086 3.92969448 -2 1 C-1.34 0.67 -0.68 0.34 0 0 Z " fill="#BD6329" transform="translate(510,136)"/>
<path d="M0 0 C1.22589844 0.01353516 1.22589844 0.01353516 2.4765625 0.02734375 C3.41628906 0.04474609 3.41628906 0.04474609 4.375 0.0625 C4.705 1.0525 5.035 2.0425 5.375 3.0625 C4.78332031 3.01609375 4.19164062 2.9696875 3.58203125 2.921875 C-0.74946804 2.72402511 -2.95653944 2.62595433 -6.6875 5.0625 C-7.6465625 6.0525 -7.6465625 6.0525 -8.625 7.0625 C-9.285 6.7325 -9.945 6.4025 -10.625 6.0625 C-7.11585383 1.50060998 -5.76245572 -0.0823208 0 0 Z " fill="#BE6327" transform="translate(418.625,165.9375)"/>
<path d="M0 0 C3.40312738 1.05875074 6.01353231 2.00902154 9 4 C9 4.66 9 5.32 9 6 C10.32 6.66 11.64 7.32 13 8 C13 8.99 13 9.98 13 11 C11.39320484 9.89966185 9.78966207 8.79457336 8.1875 7.6875 C7.29417969 7.07261719 6.40085937 6.45773438 5.48046875 5.82421875 C3.43500994 4.31992069 1.67563565 2.89831149 0 1 C0 0.67 0 0.34 0 0 Z " fill="#BC6124" transform="translate(302,176)"/>
<path d="M0 0 C7.59 0.33 15.18 0.66 23 1 C23 1.33 23 1.66 23 2 C21.96359375 2.06058594 20.9271875 2.12117188 19.859375 2.18359375 C18.48957127 2.26803371 17.11978025 2.35267997 15.75 2.4375 C14.72712891 2.49647461 14.72712891 2.49647461 13.68359375 2.55664062 C9.65578089 2.7957568 9.65578089 2.7957568 5.765625 3.78515625 C5.18296875 3.85605469 4.6003125 3.92695313 4 4 C2.68 2.68 1.36 1.36 0 0 Z " fill="#C5773A" transform="translate(552,125)"/>
<path d="M0 0 C1.5 1.0625 1.5 1.0625 3 3 C3.125 6.375 3.125 6.375 3 10 C3.28520405 11.67557379 3.59955696 13.34817245 4 15 C3.34 15 2.68 15 2 15 C-0.93161919 9.37129115 -1.2019586 6.22833095 0 0 Z " fill="#CB8040" transform="translate(365,113)"/>
<path d="M0 0 C2.28304899 0.0179485 4.52425196 0.11763285 6.796875 0.33203125 C7.456875 1.65203125 8.116875 2.97203125 8.796875 4.33203125 C7.90935547 4.18894531 7.90935547 4.18894531 7.00390625 4.04296875 C2.35307275 3.3904864 -0.92626874 2.98665846 -5.203125 5.33203125 C-4.06475685 2.29638286 -3.36675282 0.50740069 0 0 Z " fill="#BB662F" transform="translate(547.203125,33.66796875)"/>
<path d="M0 0 C7.06608191 -0.13794954 13.97360585 0.25194283 21 1 C21 1.33 21 1.66 21 2 C6.21867882 3.51708428 6.21867882 3.51708428 0 1 C0 0.67 0 0.34 0 0 Z " fill="#CC803E" transform="translate(198,397)"/>
<path d="M0 0 C0.33 0 0.66 0 1 0 C1 2.64 1 5.28 1 8 C1.66 8 2.32 8 3 8 C3 11.63 3 15.26 3 19 C-0.01399879 14.47900181 -0.12108347 11.13967935 -0.0625 5.75 C-0.04896484 4.13351562 -0.04896484 4.13351562 -0.03515625 2.484375 C-0.02355469 1.66453125 -0.01195312 0.8446875 0 0 Z " fill="#BA6023" transform="translate(148,331)"/>
<path d="M0 0 C3 1 3 1 4 3 C4.203125 5.09375 4.203125 5.09375 4.25 7.5 C4.27578125 8.2940625 4.3015625 9.088125 4.328125 9.90625 C4.21984375 10.5971875 4.1115625 11.288125 4 12 C3.01 12.66 2.02 13.32 1 14 C1.01160156 13.32453125 1.02320313 12.6490625 1.03515625 11.953125 C1.04417969 11.06109375 1.05320312 10.1690625 1.0625 9.25 C1.07990234 7.92742187 1.07990234 7.92742187 1.09765625 6.578125 C1.00826198 4.2181162 0.66912821 2.25501476 0 0 Z " fill="#BD6328" transform="translate(356,84)"/>
<path d="M0 0 C1.32 0.33 2.64 0.66 4 1 C0.7 3.64 -2.6 6.28 -6 9 C-6.33 8.01 -6.66 7.02 -7 6 C-5.93106782 4.96409662 -4.84421512 3.94666058 -3.75 2.9375 C-3.14671875 2.36902344 -2.5434375 1.80054687 -1.921875 1.21484375 C-1.28765625 0.81394531 -0.6534375 0.41304688 0 0 Z " fill="#BE642A" transform="translate(440,66)"/>
<path d="M0 0 C2.01392955 0.19180281 4.029943 0.38986 6.02734375 0.7109375 C8.16242973 1.07249316 8.16242973 1.07249316 11 1 C11.66 2.32 12.32 3.64 13 5 C12.01 4.690625 11.02 4.38125 10 4.0625 C6.02268878 2.91566793 2.11232621 2.43287644 -2 2 C-1.34 1.34 -0.68 0.68 0 0 Z " fill="#C4753C" transform="translate(547,36)"/>
<path d="M0 0 C-5.27377728 2.92987626 -10.02749309 3.11710798 -16 3 C-16 2.67 -16 2.34 -16 2 C-14.35 2 -12.7 2 -11 2 C-11 1.34 -11 0.68 -11 0 C-7.18243176 -1.37432457 -3.92744671 -0.67975039 0 0 Z " fill="#C87639" transform="translate(383,468)"/>
<path d="M0 0 C2.86632997 1.05098766 3.83006643 1.66862954 5.25 4.4375 C6 7 6 7 6 10 C6.66 10.33 7.32 10.66 8 11 C7.34 11.66 6.68 12.32 6 13 C6 12.34 6 11.68 6 11 C5.34 11 4.68 11 4 11 C3.32880451 9.5437455 2.66318193 8.08492133 2 6.625 C1.62875 5.81289063 1.2575 5.00078125 0.875 4.1640625 C0 2 0 2 0 0 Z " fill="#C2652B" transform="translate(451,273)"/>
<path d="M0 0 C0 3.63195496 -0.95453155 4.74713911 -3 7.6875 C-3.556875 8.49574219 -4.11375 9.30398437 -4.6875 10.13671875 C-5.120625 10.75160156 -5.55375 11.36648437 -6 12 C-6.64453125 10.23046875 -6.64453125 10.23046875 -7 8 C-6.07421875 6.11328125 -6.07421875 6.11328125 -4.6875 4.3125 C-4.23761719 3.71050781 -3.78773438 3.10851562 -3.32421875 2.48828125 C-2 1 -2 1 0 0 Z " fill="#BB6228" transform="translate(427,80)"/>
<path d="M0 0 C3.4989668 1.8913334 6.0354554 3.48449915 8 7 C8.1875 9.75 8.1875 9.75 8 12 C6.66666667 10.33333333 5.33333333 8.66666667 4 7 C3.2575 6.113125 2.515 5.22625 1.75 4.3125 C0 2 0 2 0 0 Z " fill="#BD6524" transform="translate(524,79)"/>
<path d="M0 0 C0.33 0 0.66 0 1 0 C1.33 5.94 1.66 11.88 2 18 C1.34 18.33 0.68 18.66 0 19 C-1.31909709 12.5510809 -0.69508823 6.51244208 0 0 Z " fill="#CA7C3E" transform="translate(438,113)"/>
<path d="M0 0 C0.33 0 0.66 0 1 0 C1.16682272 4.92127034 1.24828052 8.50343896 -1 13 C-1.99 12.67 -2.98 12.34 -4 12 C-2.68 8.04 -1.36 4.08 0 0 Z " fill="#B96228" transform="translate(544,520)"/>
<path d="M0 0 C1.32 1.32 2.64 2.64 4 4 C-0.62 3.34 -5.24 2.68 -10 2 C-6.2794164 -0.48038907 -4.40203429 -0.46337203 0 0 Z " fill="#BA5C20" transform="translate(412,34)"/>
<path d="M0 0 C2.52394612 3.12488567 4.39701907 6.31314387 6 10 C5.67 10.66 5.34 11.32 5 12 C2.65398514 9.86725921 1.13735551 7.97462211 0 5 C-0.125 2.25 -0.125 2.25 0 0 Z " fill="#B95F24" transform="translate(128,367)"/>
<path d="M0 0 C3 2 3 2 3.58203125 4.05859375 C3.65808594 4.84363281 3.73414062 5.62867188 3.8125 6.4375 C3.90144531 7.21996094 3.99039063 8.00242187 4.08203125 8.80859375 C4 11 4 11 2 14 C0.66416101 9.15758367 -0.25328119 5.06562383 0 0 Z " fill="#C97D41" transform="translate(121,344)"/>
<path d="M0 0 C0.33 1.32 0.66 2.64 1 4 C-1.88087546 6.40072955 -4.56404834 8.47291037 -8 10 C-6.34908222 5.70761377 -3.26245434 3.1206085 0 0 Z " fill="#C6763B" transform="translate(537,41)"/>
<path d="M0 0 C0 3.58912412 -0.66436554 4.10857029 -3 6.6875 C-3.556875 7.31011719 -4.11375 7.93273437 -4.6875 8.57421875 C-5.120625 9.04472656 -5.55375 9.51523438 -6 10 C-6.33 8.68 -6.66 7.36 -7 6 C-4.69 4.02 -2.38 2.04 0 0 Z " fill="#B95D23" transform="translate(251,161)"/>
<path d="M0 0 C0.33 0 0.66 0 1 0 C1.13277344 0.62648438 1.26554688 1.25296875 1.40234375 1.8984375 C1.57894531 2.71570313 1.75554688 3.53296875 1.9375 4.375 C2.11152344 5.18710938 2.28554688 5.99921875 2.46484375 6.8359375 C2.92330693 9.029463 2.92330693 9.029463 4 11 C2.0625 10.625 2.0625 10.625 0 10 C-1.49106457 7.01787087 -1.11941467 4.28390342 -1 1 C-0.67 0.67 -0.34 0.34 0 0 Z " fill="#BD6320" transform="translate(550,114)"/>
<path d="M0 0 C0.66 0.33 1.32 0.66 2 1 C1.34 1.66 0.68 2.32 0 3 C0 3.99 0 4.98 0 6 C-2 8.1875 -2 8.1875 -4 10 C-4.66 9.67 -5.32 9.34 -6 9 C-5.505 8.566875 -5.01 8.13375 -4.5 7.6875 C-2.66781808 6.00259517 -2.66781808 6.00259517 -3 3 C-1.5 1.3125 -1.5 1.3125 0 0 Z " fill="#C5783B" transform="translate(392,260)"/>
<path d="M0 0 C6.47556391 0.61090226 6.47556391 0.61090226 8.9375 2.4375 C10 4 10 4 10 6 C6.66666667 4.33333333 3.33333333 2.66666667 0 1 C0 0.67 0 0.34 0 0 Z " fill="#BD6529" transform="translate(432,257)"/>
<path d="M0 0 C3 1 3 1 4.1875 2.6875 C5.19313465 5.54969093 5.13689641 7.98827908 5 11 C2.77174356 8.77174356 2.30760631 7.34238372 1.375 4.375 C1.11460937 3.55773437 0.85421875 2.74046875 0.5859375 1.8984375 C0.39257812 1.27195313 0.19921875 0.64546875 0 0 Z " fill="#BA6025" transform="translate(341,174)"/>
<path d="M0 0 C-0.66 0 -1.32 0 -2 0 C-2 0.66 -2 1.32 -2 2 C-5.63 2 -9.26 2 -13 2 C-13 1.67 -13 1.34 -13 1 C-11.58622218 0.63447197 -10.16879424 0.28304505 -8.75 -0.0625 C-7.96109375 -0.25972656 -7.1721875 -0.45695312 -6.359375 -0.66015625 C-3.89605178 -1.01497267 -2.34395868 -0.76877544 0 0 Z " fill="#B95B20" transform="translate(373,415)"/>
<path d="M0 0 C0.33 0 0.66 0 1 0 C0.88590407 1.45922693 0.75834456 2.91740598 0.625 4.375 C0.55539062 5.18710937 0.48578125 5.99921875 0.4140625 6.8359375 C0 9 0 9 -2 11 C-2.33 8.03 -2.66 5.06 -3 2 C-2.67 2.66 -2.34 3.32 -2 4 C-1.34 4 -0.68 4 0 4 C0 2.68 0 1.36 0 0 Z " fill="#CA7B41" transform="translate(403,377)"/>
<path d="M0 0 C-2.64 1.98 -5.28 3.96 -8 6 C-8.66 5.67 -9.32 5.34 -10 5 C-5.16129032 -1.29032258 -5.16129032 -1.29032258 0 0 Z " fill="#B95C21" transform="translate(146,227)"/>
<path d="M0 0 C2.97 0.99 5.94 1.98 9 3 C9 3.66 9 4.32 9 5 C5.625 4.75 5.625 4.75 2 4 C1.34 2.68 0.68 1.36 0 0 Z " fill="#BC6024" transform="translate(468,38)"/>
<path d="M0 0 C1 3 1 3 0.00390625 5.04296875 C-0.47175781 5.75066406 -0.94742188 6.45835937 -1.4375 7.1875 C-1.91058594 7.90292969 -2.38367188 8.61835937 -2.87109375 9.35546875 C-3.24363281 9.89816406 -3.61617187 10.44085937 -4 11 C-4.625 9.1875 -4.625 9.1875 -5 7 C-4.34 6.01 -3.68 5.02 -3 4 C-2.34 4 -1.68 4 -1 4 C-0.67 2.68 -0.34 1.36 0 0 Z " fill="#BB6023" transform="translate(518,518)"/>
<path d="M0 0 C0 3.41099168 -0.49145406 6.63088314 -1 10 C-2.5625 8.8125 -2.5625 8.8125 -4 7 C-3.875 4.4375 -3.875 4.4375 -3 2 C-2.01 1.34 -1.02 0.68 0 0 Z " fill="#BA601C" transform="translate(397,183)"/>
<path d="M0 0 C0.33 0 0.66 0 1 0 C1.2954439 5.02254631 0.98514628 7.89542386 -2 12 C-2.99 11.67 -3.98 11.34 -5 11 C-4.34 10.01 -3.68 9.02 -3 8 C-2.34 8 -1.68 8 -1 8 C-0.67 5.36 -0.34 2.72 0 0 Z " fill="#C67737" transform="translate(430,175)"/>
<path d="M0 0 C0.33 0 0.66 0 1 0 C1 2.97 1 5.94 1 9 C1.66 9 2.32 9 3 9 C3.33 10.65 3.66 12.3 4 14 C2 12.625 2 12.625 0 10 C-0.35791096 6.6419531 -0.23115823 3.36463643 0 0 Z " fill="#C67A3D" transform="translate(394,42)"/>
<path d="M0 0 C0.99 0.66 1.98 1.32 3 2 C0.69 2.33 -1.62 2.66 -4 3 C-4.66 2.01 -5.32 1.02 -6 0 C-3 -1 -3 -1 0 0 Z " fill="#C8743C" transform="translate(388,465)"/>
<path d="M0 0 C0.98120464 3.05263664 0.98120464 4.94736336 0 8 C-1.32 8.33 -2.64 8.66 -4 9 C-2.80100302 5.9168649 -1.52299523 2.93720508 0 0 Z " fill="#C05C24" transform="translate(443,419)"/>
<path d="M0 0 C4.875 4.625 4.875 4.625 6 8 C3.53199953 6.84826645 1.95216435 5.95216435 0 4 C0 2.68 0 1.36 0 0 Z " fill="#BA5E24" transform="translate(184,348)"/>
<path d="M0 0 C0.8971875 0.5259375 0.8971875 0.5259375 1.8125 1.0625 C-0.94674185 2.86661967 -2.07722103 3.0752245 -5.4375 2.6875 C-6.345 2.48125 -7.2525 2.275 -8.1875 2.0625 C-3.10054348 -1.32880435 -3.10054348 -1.32880435 0 0 Z " fill="#CA7B43" transform="translate(493.1875,153.9375)"/>
<path d="M0 0 C0 0.33 0 0.66 0 1 C-3.63 1.66 -7.26 2.32 -11 3 C-11 2.34 -11 1.68 -11 1 C-7.2297564 -1.56376565 -4.32597804 -0.83191885 0 0 Z " fill="#D18638" transform="translate(91,106)"/>
<path d="M0 0 C4.75 0.75 4.75 0.75 7 3 C6.625 5.125 6.625 5.125 6 7 C1.125 2.25 1.125 2.25 0 0 Z " fill="#BA6328" transform="translate(579,105)"/>
<path d="M0 0 C2.75 0.25 2.75 0.25 5 1 C3.875 2.5 3.875 2.5 2 4 C-1.1875 4.1875 -1.1875 4.1875 -4 4 C-2.3125 1.9375 -2.3125 1.9375 0 0 Z " fill="#C3783F" transform="translate(62,86)"/>
<path d="M0 0 C3.465 1.98 3.465 1.98 7 4 C6.34 4.66 5.68 5.32 5 6 C4.01 6 3.02 6 2 6 C0 3 0 3 0 0 Z " fill="#C4742C" transform="translate(72,532)"/>
<path d="M0 0 C2.5 2.3125 2.5 2.3125 5 5 C5 5.99 5 6.98 5 8 C2.5 6.25 2.5 6.25 0 4 C0 2.68 0 1.36 0 0 Z " fill="#BD641F" transform="translate(423,152)"/>
<path d="M0 0 C3.3 0.33 6.6 0.66 10 1 C10.33 1.99 10.66 2.98 11 4 C7.1936543 3.32829194 3.64793184 2.27253436 0 1 C0 0.67 0 0.34 0 0 Z " fill="#BA5E18" transform="translate(492,59)"/>
<path d="M0 0 C0.99 0.33 1.98 0.66 3 1 C0.6875 3.0625 0.6875 3.0625 -2 5 C-2.99 4.67 -3.98 4.34 -5 4 C-2.6875 1.9375 -2.6875 1.9375 0 0 Z " fill="#BC6327" transform="translate(367,384)"/>
<path d="M0 0 C0.33 0.66 0.66 1.32 1 2 C1.66 2 2.32 2 3 2 C3.66 3.65 4.32 5.3 5 7 C4.34 7.66 3.68 8.32 3 9 C0 3.375 0 3.375 0 0 Z " fill="#C97A32" transform="translate(178,338)"/>
<path d="M0 0 C2.375 0.25 2.375 0.25 5 1 C6.3125 3.0625 6.3125 3.0625 7 5 C2.25 3.125 2.25 3.125 0 2 C0 1.34 0 0.68 0 0 Z " fill="#BB6024" transform="translate(181,226)"/>
<path d="M0 0 C4.21912747 0.4794463 6.79663178 1.16625119 10 4 C8.375 4.75 8.375 4.75 6 5 C2.75 3.125 2.75 3.125 0 1 C0 0.67 0 0.34 0 0 Z " fill="#C97B3D" transform="translate(307,146)"/>
<path d="M0 0 C0.33 0 0.66 0 1 0 C1.36923077 5.53846154 1.36923077 5.53846154 -0.5 7.875 C-1.2425 8.431875 -1.2425 8.431875 -2 9 C-2.33 8.34 -2.66 7.68 -3 7 C-2.06421005 4.64018187 -1.06652192 2.30368736 0 0 Z " fill="#BC6126" transform="translate(536,135)"/>
<path d="M0 0 C0.99 0 1.98 0 3 0 C6 3.33333333 6 3.33333333 6 6 C3.5625 5.25 3.5625 5.25 1 4 C0.1875 1.875 0.1875 1.875 0 0 Z " fill="#C8793C" transform="translate(439,135)"/>
<path d="M0 0 C0.66 0.33 1.32 0.66 2 1 C1.67 2.32 1.34 3.64 1 5 C-0.65 5.33 -2.3 5.66 -4 6 C-2.84826645 3.53199953 -1.95216435 1.95216435 0 0 Z " fill="#C97E40" transform="translate(370,107)"/>
<path d="M0 0 C-0.33 0.99 -0.66 1.98 -1 3 C-4.3 3 -7.6 3 -11 3 C-11 2.67 -11 2.34 -11 2 C-9.5422647 1.664061 -8.08378894 1.33133376 -6.625 1 C-5.40683594 0.7215625 -5.40683594 0.7215625 -4.1640625 0.4375 C-2 0 -2 0 0 0 Z " fill="#B34F16" transform="translate(425,67)"/>
<path d="M0 0 C2.475 0.99 2.475 0.99 5 2 C4.67 2.99 4.34 3.98 4 5 C2.02 4.34 0.04 3.68 -2 3 C-1.34 2.01 -0.68 1.02 0 0 Z " fill="#C7773C" transform="translate(502,61)"/>
<path d="M0 0 C0.33 0 0.66 0 1 0 C1 2.64 1 5.28 1 8 C0.67 8 0.34 8 0 8 C0 5.36 0 2.72 0 0 Z " fill="#F44A2A" transform="translate(427,347)"/>
<path d="M0 0 C0.33 0 0.66 0 1 0 C1 2.31 1 4.62 1 7 C0.67 7 0.34 7 0 7 C0 4.69 0 2.38 0 0 Z " fill="#FF9124" transform="translate(427,332)"/>
<path d="M0 0 C0.33 0 0.66 0 1 0 C1 2.31 1 4.62 1 7 C0.67 7 0.34 7 0 7 C0 4.69 0 2.38 0 0 Z " fill="#F27342" transform="translate(427,300)"/>
<path d="M0 0 C0.33 0 0.66 0 1 0 C1 2.31 1 4.62 1 7 C0.67 7 0.34 7 0 7 C0 4.69 0 2.38 0 0 Z " fill="#FF7F36" transform="translate(319,279)"/>
<path d="M0 0 C0.33 0 0.66 0 1 0 C1 1.98 1 3.96 1 6 C0.67 6 0.34 6 0 6 C0 4.02 0 2.04 0 0 Z " fill="#FF2A15" transform="translate(427,364)"/>
<path d="M0 0 C0.33 0 0.66 0 1 0 C1 1.65 1 3.3 1 5 C0.34 4.67 -0.32 4.34 -1 4 C-0.67 2.68 -0.34 1.36 0 0 Z " fill="#F69032" transform="translate(373,364)"/>
<path d="M0 0 C1.32 0 2.64 0 4 0 C4 0.66 4 1.32 4 2 C2.68 2 1.36 2 0 2 C0 1.34 0 0.68 0 0 Z " fill="#F06323" transform="translate(227,339)"/>
<path d="M0 0 C0.33 0 0.66 0 1 0 C1 1.98 1 3.96 1 6 C0.67 6 0.34 6 0 6 C0 4.02 0 2.04 0 0 Z " fill="#FF7F2A" transform="translate(319,239)"/>
<path d="M0 0 C1.65 0 3.3 0 5 0 C4.67 0.66 4.34 1.32 4 2 C2.68 1.34 1.36 0.68 0 0 Z " fill="#E2461C" transform="translate(478,183)"/>
<path d="M0 0 C1.65 0 3.3 0 5 0 C5 0.33 5 0.66 5 1 C3.35 1 1.7 1 0 1 C0 0.67 0 0.34 0 0 Z " fill="#FFB219" transform="translate(355,473)"/>
<path d="M0 0 C0.33 0 0.66 0 1 0 C1 1.65 1 3.3 1 5 C0.67 5 0.34 5 0 5 C0 3.35 0 1.7 0 0 Z " fill="#EEEE11" transform="translate(319,326)"/>
<path d="M0 0 C0.33 0 0.66 0 1 0 C1 1.65 1 3.3 1 5 C0.67 5 0.34 5 0 5 C0 3.35 0 1.7 0 0 Z " fill="#EE8743" transform="translate(319,318)"/>
<path d="M0 0 C0.33 0 0.66 0 1 0 C1 1.65 1 3.3 1 5 C0.67 5 0.34 5 0 5 C0 3.35 0 1.7 0 0 Z " fill="#FF3232" transform="translate(427,308)"/>
<path d="M0 0 C1 4 1 4 1 4 Z " fill="#E9A954" transform="translate(319,535)"/>
<path d="M0 0 C0.99 1.485 0.99 1.485 2 3 C1.34 3 0.68 3 0 3 C0 2.01 0 1.02 0 0 Z " fill="#E99454" transform="translate(36,534)"/>
<path d="M0 0 C0.99 0.33 1.98 0.66 3 1 C2.01 1 1.02 1 0 1 C0 0.67 0 0.34 0 0 Z " fill="#FF7F00" transform="translate(500,531)"/>
<path d="M0 0 C1 4 1 4 1 4 Z " fill="#FF7F7F" transform="translate(319,527)"/>
<path d="M0 0 C1 4 1 4 1 4 Z " fill="#E9A954" transform="translate(31,511)"/>
<path d="M0 0 C1 4 1 4 1 4 Z " fill="#FFDF1F" transform="translate(319,495)"/>
<path d="M0 0 C1 4 1 4 1 4 Z " fill="#E9A954" transform="translate(319,487)"/>
<path d="M0 0 C1 4 1 4 1 4 Z " fill="#FFDF1F" transform="translate(319,471)"/>
<path d="M0 0 C1 4 1 4 1 4 Z " fill="#FFBF3F" transform="translate(319,463)"/>
<path d="M0 0 C1 4 1 4 1 4 Z " fill="#FFFF00" transform="translate(516,461)"/>
<path d="M0 0 C1 4 1 4 1 4 Z " fill="#E9C935" transform="translate(319,455)"/>
<path d="M0 0 C1 4 1 4 1 4 Z " fill="#D98944" transform="translate(319,447)"/>
<path d="M0 0 C1 4 1 4 1 4 Z " fill="#E97435" transform="translate(31,430)"/>
<path d="M0 0 C1 4 1 4 1 4 Z " fill="#D9A944" transform="translate(319,407)"/>
<path d="M0 0 C1 4 1 4 1 4 Z " fill="#D4942A" transform="translate(319,391)"/>
<path d="M0 0 C1 4 1 4 1 4 Z " fill="#FFDF1F" transform="translate(319,383)"/>
<path d="M0 0 C1 4 1 4 1 4 Z " fill="#D4D42A" transform="translate(319,367)"/>
<path d="M0 0 C1 4 1 4 1 4 Z " fill="#FFBF3F" transform="translate(319,342)"/>
<path d="M0 0 C1 4 1 4 1 4 Z " fill="#FF3F3F" transform="translate(427,326)"/>
<path d="M0 0 C1 4 1 4 1 4 Z " fill="#E97474" transform="translate(319,303)"/>
<path d="M0 0 C1 4 1 4 1 4 Z " fill="#D47F6A" transform="translate(319,287)"/>
<path d="M0 0 C1 4 1 4 1 4 Z " fill="#FF7F7F" transform="translate(319,263)"/>
<path d="M0 0 C4 1 4 1 4 1 Z " fill="#E91515" transform="translate(415,251)"/>
<path d="M0 0 C1 4 1 4 1 4 Z " fill="#D43F2A" transform="translate(319,247)"/>
<path d="M0 0 C1 4 1 4 1 4 Z " fill="#D4B44A" transform="translate(319,231)"/>
<path d="M0 0 C4 1 4 1 4 1 Z " fill="#FF0000" transform="translate(158,219)"/>
<path d="M0 0 C1 4 1 4 1 4 Z " fill="#FFBF3F" transform="translate(319,215)"/>
<path d="M0 0 C1 4 1 4 1 4 Z " fill="#FF3F00" transform="translate(319,207)"/>
<path d="M0 0 C4 1 4 1 4 1 Z " fill="#C96A34" transform="translate(293,177)"/>
<path d="" fill="#FFA954" transform="translate(0,0)"/>
<path d="" fill="#FF2A2A" transform="translate(0,0)"/>
<path d="" fill="#E2B846" transform="translate(0,0)"/>
<path d="M0 0 C0.99 0.495 0.99 0.495 2 1 C1.01 1.495 1.01 1.495 0 2 C0 1.34 0 0.68 0 0 Z " fill="#DDA32D" transform="translate(352,473)"/>
<path d="" fill="#FF2A2A" transform="translate(0,0)"/>
<path d="" fill="#E26346" transform="translate(0,0)"/>
<path d="" fill="#CD8D5B" transform="translate(0,0)"/>
<path d="" fill="#FF7F7F" transform="translate(0,0)"/>
<path d="" fill="#C69B63" transform="translate(0,0)"/>
<path d="M0 0 C0.66 0.66 1.32 1.32 2 2 C1.34 2 0.68 2 0 2 C0 1.34 0 0.68 0 0 Z " fill="#FF542A" transform="translate(308,183)"/>
<path d="M0 0 C3 1 3 1 3 1 Z " fill="#E21C1C" transform="translate(471,183)"/>
<path d="" fill="#D4946A" transform="translate(0,0)"/>
<path d="" fill="#FFFF00" transform="translate(0,0)"/>
<path d="" fill="#FFBF3F" transform="translate(0,0)"/>
<path d="M0 0 C2 1 2 1 2 1 Z " fill="#FFFF00" transform="translate(515,429)"/>
<path d="" fill="#FFBF3F" transform="translate(0,0)"/>
<path d="" fill="#FF0000" transform="translate(0,0)"/>
<path d="M0 0 C2 1 2 1 2 1 Z " fill="#E58C59" transform="translate(352,387)"/>
<path d="" fill="#FF3F3F" transform="translate(0,0)"/>
<path d="" fill="#FF3F3F" transform="translate(0,0)"/>
<path d="" fill="#FF3F3F" transform="translate(0,0)"/>
<path d="M0 0 C2 1 2 1 2 1 Z " fill="#FF3F00" transform="translate(227,376)"/>
<path d="" fill="#D4D42A" transform="translate(0,0)"/>
<path d="" fill="#FFFF00" transform="translate(0,0)"/>
<path d="" fill="#FF3F00" transform="translate(0,0)"/>
<path d="" fill="#FF0000" transform="translate(0,0)"/>
<path d="" fill="#FF0000" transform="translate(0,0)"/>
<path d="" fill="#FFBF3F" transform="translate(0,0)"/>
<path d="" fill="#FF0000" transform="translate(0,0)"/>
<path d="" fill="#FF0000" transform="translate(0,0)"/>
<path d="" fill="#FF7F7F" transform="translate(0,0)"/>
<path d="" fill="#FF0000" transform="translate(0,0)"/>
<path d="" fill="#D42A2A" transform="translate(0,0)"/>
<path d="" fill="#FF0000" transform="translate(0,0)"/>
<path d="" fill="#FFBF3F" transform="translate(0,0)"/>
<path d="M0 0 C2 1 2 1 2 1 Z " fill="#DF3F1F" transform="translate(420,287)"/>
<path d="M0 0 C2 1 2 1 2 1 Z " fill="#FF3F3F" transform="translate(159,255)"/>
<path d="M0 0 C2 1 2 1 2 1 Z " fill="#FFFF00" transform="translate(483,232)"/>
<path d="M0 0 C2 1 2 1 2 1 Z " fill="#FFFF00" transform="translate(468,183)"/>
<path d="M0 0 C2 1 2 1 2 1 Z " fill="#AA5555" transform="translate(445,176)"/>
<path d="" fill="#FF0000" transform="translate(0,0)"/>
<path d="M0 0 C2 1 2 1 2 1 Z " fill="#FF3F00" transform="translate(476,155)"/>
<path d="M0 0 C2 1 2 1 2 1 Z " fill="#C97F34" transform="translate(472,155)"/>
<path d="" fill="#FF3F3F" transform="translate(0,0)"/>
<path d="M0 0 C2 1 2 1 2 1 Z " fill="#FF7F00" transform="translate(78,111)"/>
<path d="M0 0 C2 1 2 1 2 1 Z " fill="#FF0000" transform="translate(383,103)"/>
<path d="M0 0 C2 1 2 1 2 1 Z " fill="#FF7F7F" transform="translate(493,88)"/>
<path d="" fill="#D4946A" transform="translate(0,0)"/>
<path d="M0 0 C2 1 2 1 2 1 Z " fill="#FF0000" transform="translate(540,72)"/>
<path d="" fill="#D4AA2A" transform="translate(0,0)"/>
<path d="M0 0 C2 1 2 1 2 1 Z " fill="#FF0000" transform="translate(523,54)"/>
<path d="" fill="#FF0000" transform="translate(0,0)"/>
<path d="M0 0 C2 1 2 1 2 1 Z " fill="#DF7F5F" transform="translate(416,35)"/>
<path d="" fill="#FF0000" transform="translate(0,0)"/>
<path d="" fill="#FF0000" transform="translate(0,0)"/>
<path d="" fill="#FFFF00" transform="translate(0,0)"/>
<path d="" fill="#FF0000" transform="translate(0,0)"/>
<path d="" fill="#FFFF00" transform="translate(0,0)"/>
<path d="" fill="#FFFF00" transform="translate(0,0)"/>
<path d="" fill="#FF0000" transform="translate(0,0)"/>
<path d="" fill="#FF7F7F" transform="translate(0,0)"/>
<path d="" fill="#FFFF00" transform="translate(0,0)"/>
<path d="" fill="#FFFF00" transform="translate(0,0)"/>
<path d="" fill="#FFFF00" transform="translate(0,0)"/>
<path d="" fill="#FFFF00" transform="translate(0,0)"/>
<path d="" fill="#FFFF00" transform="translate(0,0)"/>
<path d="" fill="#FFFF00" transform="translate(0,0)"/>
<path d="" fill="#FFFF00" transform="translate(0,0)"/>
<path d="" fill="#FF7F7F" transform="translate(0,0)"/>
<path d="" fill="#FFFF00" transform="translate(0,0)"/>
<path d="" fill="#FF0000" transform="translate(0,0)"/>
<path d="" fill="#FFFF00" transform="translate(0,0)"/>
<path d="" fill="#FF7F7F" transform="translate(0,0)"/>
<path d="" fill="#FFFF00" transform="translate(0,0)"/>
<path d="" fill="#FF0000" transform="translate(0,0)"/>
<path d="" fill="#FFFF00" transform="translate(0,0)"/>
<path d="" fill="#FF0000" transform="translate(0,0)"/>
<path d="" fill="#FF7F7F" transform="translate(0,0)"/>
<path d="" fill="#FFFF00" transform="translate(0,0)"/>
<path d="" fill="#FF0000" transform="translate(0,0)"/>
<path d="" fill="#FFFF00" transform="translate(0,0)"/>
<path d="" fill="#FFFF00" transform="translate(0,0)"/>
<path d="" fill="#FF0000" transform="translate(0,0)"/>
<path d="" fill="#FF7F7F" transform="translate(0,0)"/>
<path d="" fill="#FF7F7F" transform="translate(0,0)"/>
<path d="" fill="#FFFF00" transform="translate(0,0)"/>
<path d="" fill="#FF0000" transform="translate(0,0)"/>
<path d="" fill="#FF0000" transform="translate(0,0)"/>
<path d="" fill="#AAAA55" transform="translate(0,0)"/>
<path d="" fill="#FF0000" transform="translate(0,0)"/>
<path d="" fill="#AA5555" transform="translate(0,0)"/>
<path d="" fill="#FFFF00" transform="translate(0,0)"/>
<path d="" fill="#FFFF00" transform="translate(0,0)"/>
<path d="" fill="#BF7F3F" transform="translate(0,0)"/>
<path d="" fill="#FF7F7F" transform="translate(0,0)"/>
<path d="" fill="#FFFF00" transform="translate(0,0)"/>
<path d="" fill="#FF7F7F" transform="translate(0,0)"/>
<path d="" fill="#FFFF00" transform="translate(0,0)"/>
<path d="" fill="#FF0000" transform="translate(0,0)"/>
<path d="" fill="#FF0000" transform="translate(0,0)"/>
<path d="" fill="#FF0000" transform="translate(0,0)"/>
<path d="" fill="#FF0000" transform="translate(0,0)"/>
<path d="" fill="#FF0000" transform="translate(0,0)"/>
<path d="" fill="#FFFF00" transform="translate(0,0)"/>
<path d="" fill="#AAAA55" transform="translate(0,0)"/>
<path d="" fill="#FFFF00" transform="translate(0,0)"/>
<path d="" fill="#FFFF00" transform="translate(0,0)"/>
<path d="" fill="#FF0000" transform="translate(0,0)"/>
<path d="" fill="#AA5555" transform="translate(0,0)"/>
<path d="" fill="#FFFF00" transform="translate(0,0)"/>
<path d="" fill="#FF0000" transform="translate(0,0)"/>
<path d="" fill="#FFFF00" transform="translate(0,0)"/>
<path d="" fill="#FF0000" transform="translate(0,0)"/>
<path d="" fill="#FF7F00" transform="translate(0,0)"/>
<path d="" fill="#FF0000" transform="translate(0,0)"/>
<path d="" fill="#FFFF00" transform="translate(0,0)"/>
<path d="" fill="#FF0000" transform="translate(0,0)"/>
<path d="" fill="#FF7F7F" transform="translate(0,0)"/>
<path d="" fill="#FFFF00" transform="translate(0,0)"/>
<path d="" fill="#FF0000" transform="translate(0,0)"/>
<path d="" fill="#FF7F00" transform="translate(0,0)"/>
<path d="" fill="#FF0000" transform="translate(0,0)"/>
<path d="" fill="#FF0000" transform="translate(0,0)"/>
<path d="" fill="#FFFF00" transform="translate(0,0)"/>
<path d="" fill="#FFFF00" transform="translate(0,0)"/>
<path d="" fill="#FFFF00" transform="translate(0,0)"/>
<path d="" fill="#FF0000" transform="translate(0,0)"/>
<path d="" fill="#FF0000" transform="translate(0,0)"/>
<path d="" fill="#FF0000" transform="translate(0,0)"/>
<path d="" fill="#FF0000" transform="translate(0,0)"/>
<path d="" fill="#FF7F00" transform="translate(0,0)"/>
<path d="" fill="#FF0000" transform="translate(0,0)"/>
<path d="" fill="#FF7F7F" transform="translate(0,0)"/>
<path d="" fill="#FF0000" transform="translate(0,0)"/>
<path d="" fill="#FF7F00" transform="translate(0,0)"/>
<path d="" fill="#AA5555" transform="translate(0,0)"/>
<path d="" fill="#FF0000" transform="translate(0,0)"/>
<path d="" fill="#FF0000" transform="translate(0,0)"/>
<path d="" fill="#FF0000" transform="translate(0,0)"/>
<path d="" fill="#FF7F7F" transform="translate(0,0)"/>
<path d="" fill="#FF0000" transform="translate(0,0)"/>
<path d="" fill="#FF0000" transform="translate(0,0)"/>
<path d="" fill="#FFFF00" transform="translate(0,0)"/>
<path d="" fill="#FF7F7F" transform="translate(0,0)"/>
<path d="" fill="#FF7F7F" transform="translate(0,0)"/>
<path d="" fill="#FF7F7F" transform="translate(0,0)"/>
<path d="" fill="#FF0000" transform="translate(0,0)"/>
<path d="" fill="#FFFF00" transform="translate(0,0)"/>
<path d="" fill="#FFFF00" transform="translate(0,0)"/>
<path d="" fill="#FFFF00" transform="translate(0,0)"/>
<path d="" fill="#FF0000" transform="translate(0,0)"/>
<path d="" fill="#FF0000" transform="translate(0,0)"/>
<path d="" fill="#FF0000" transform="translate(0,0)"/>
<path d="" fill="#FF0000" transform="translate(0,0)"/>
<path d="" fill="#FFFF00" transform="translate(0,0)"/>
<path d="" fill="#FF7F7F" transform="translate(0,0)"/>
<path d="" fill="#FF0000" transform="translate(0,0)"/>
<path d="" fill="#FFFF00" transform="translate(0,0)"/>
<path d="" fill="#FF0000" transform="translate(0,0)"/>
<path d="" fill="#FF0000" transform="translate(0,0)"/>
<path d="" fill="#FF7F7F" transform="translate(0,0)"/>
<path d="" fill="#FFFF00" transform="translate(0,0)"/>
<path d="" fill="#FFFF00" transform="translate(0,0)"/>
<path d="" fill="#FF7F7F" transform="translate(0,0)"/>
<path d="" fill="#FF0000" transform="translate(0,0)"/>
<path d="" fill="#FFFF00" transform="translate(0,0)"/>
<path d="" fill="#FFFF00" transform="translate(0,0)"/>
<path d="" fill="#FF0000" transform="translate(0,0)"/>
<path d="" fill="#FF0000" transform="translate(0,0)"/>
<path d="" fill="#FF0000" transform="translate(0,0)"/>
<path d="" fill="#FFFF00" transform="translate(0,0)"/>
<path d="" fill="#AA5555" transform="translate(0,0)"/>
<path d="" fill="#FF0000" transform="translate(0,0)"/>
<path d="" fill="#FFFF00" transform="translate(0,0)"/>
<path d="" fill="#FFFF00" transform="translate(0,0)"/>
<path d="" fill="#FFFF00" transform="translate(0,0)"/>
<path d="" fill="#FFFF00" transform="translate(0,0)"/>
<path d="" fill="#FF7F7F" transform="translate(0,0)"/>
<path d="" fill="#FF7F7F" transform="translate(0,0)"/>
<path d="" fill="#FF0000" transform="translate(0,0)"/>
<path d="" fill="#FF7F7F" transform="translate(0,0)"/>
<path d="" fill="#FFFF00" transform="translate(0,0)"/>
<path d="" fill="#FF0000" transform="translate(0,0)"/>
<path d="" fill="#FF0000" transform="translate(0,0)"/>
<path d="" fill="#FF0000" transform="translate(0,0)"/>
<path d="" fill="#FF0000" transform="translate(0,0)"/>
<path d="" fill="#FF0000" transform="translate(0,0)"/>
<path d="" fill="#FF7F7F" transform="translate(0,0)"/>
<path d="" fill="#FF0000" transform="translate(0,0)"/>
<path d="" fill="#AA5555" transform="translate(0,0)"/>
<path d="" fill="#FF7F7F" transform="translate(0,0)"/>
<path d="" fill="#FFFF00" transform="translate(0,0)"/>
<path d="" fill="#FF0000" transform="translate(0,0)"/>
<path d="" fill="#FFFF00" transform="translate(0,0)"/>
<path d="" fill="#FF0000" transform="translate(0,0)"/>
<path d="" fill="#FFFF00" transform="translate(0,0)"/>
<path d="" fill="#AA5555" transform="translate(0,0)"/>
<path d="" fill="#FFFF00" transform="translate(0,0)"/>
<path d="" fill="#FF0000" transform="translate(0,0)"/>
<path d="" fill="#FF7F7F" transform="translate(0,0)"/>
<path d="" fill="#FF7F7F" transform="translate(0,0)"/>
<path d="" fill="#FFFF00" transform="translate(0,0)"/>
<path d="" fill="#FF0000" transform="translate(0,0)"/>
<path d="" fill="#AAAA55" transform="translate(0,0)"/>
<path d="" fill="#CC6633" transform="translate(0,0)"/>
<path d="" fill="#FFFF00" transform="translate(0,0)"/>
<path d="" fill="#FFFF00" transform="translate(0,0)"/>
<path d="" fill="#FF7F00" transform="translate(0,0)"/>
<path d="" fill="#FF7F00" transform="translate(0,0)"/>
<path d="" fill="#FFFF00" transform="translate(0,0)"/>
<path d="" fill="#FF0000" transform="translate(0,0)"/>
<path d="" fill="#FF0000" transform="translate(0,0)"/>
<path d="" fill="#FFFF00" transform="translate(0,0)"/>
<path d="" fill="#AAAA55" transform="translate(0,0)"/>
<path d="" fill="#FFFF00" transform="translate(0,0)"/>
<path d="" fill="#FFFF00" transform="translate(0,0)"/>
<path d="" fill="#FFFF00" transform="translate(0,0)"/>
<path d="" fill="#FFFF00" transform="translate(0,0)"/>
<path d="" fill="#FF0000" transform="translate(0,0)"/>
<path d="" fill="#FF7F7F" transform="translate(0,0)"/>
<path d="" fill="#FFFF00" transform="translate(0,0)"/>
<path d="" fill="#FFFF00" transform="translate(0,0)"/>
<path d="" fill="#FFFF00" transform="translate(0,0)"/>
<path d="" fill="#FFFF00" transform="translate(0,0)"/>
<path d="" fill="#FF0000" transform="translate(0,0)"/>
<path d="" fill="#FF0000" transform="translate(0,0)"/>
<path d="" fill="#FF0000" transform="translate(0,0)"/>
<path d="" fill="#FF0000" transform="translate(0,0)"/>
<path d="" fill="#FF0000" transform="translate(0,0)"/>
<path d="" fill="#FF0000" transform="translate(0,0)"/>
<path d="" fill="#FF7F7F" transform="translate(0,0)"/>
<path d="" fill="#AAAA55" transform="translate(0,0)"/>
<path d="" fill="#FF0000" transform="translate(0,0)"/>
<path d="" fill="#FF7F7F" transform="translate(0,0)"/>
<path d="" fill="#FFFF00" transform="translate(0,0)"/>
<path d="" fill="#AA5555" transform="translate(0,0)"/>
<path d="" fill="#FF0000" transform="translate(0,0)"/>
<path d="" fill="#FF0000" transform="translate(0,0)"/>
<path d="" fill="#FF0000" transform="translate(0,0)"/>
<path d="" fill="#FF0000" transform="translate(0,0)"/>
<path d="" fill="#FF0000" transform="translate(0,0)"/>
<path d="" fill="#FFFF00" transform="translate(0,0)"/>
<path d="" fill="#FFFF00" transform="translate(0,0)"/>
<path d="" fill="#FF0000" transform="translate(0,0)"/>
<path d="" fill="#FF0000" transform="translate(0,0)"/>
<path d="" fill="#FFFF00" transform="translate(0,0)"/>
<path d="" fill="#FF0000" transform="translate(0,0)"/>
<path d="" fill="#FF0000" transform="translate(0,0)"/>
<path d="" fill="#FF0000" transform="translate(0,0)"/>
<path d="" fill="#FF0000" transform="translate(0,0)"/>
<path d="" fill="#FF0000" transform="translate(0,0)"/>
<path d="" fill="#FF0000" transform="translate(0,0)"/>
<path d="" fill="#FF7F00" transform="translate(0,0)"/>
<path d="" fill="#FF7F00" transform="translate(0,0)"/>
<path d="" fill="#AA5555" transform="translate(0,0)"/>
<path d="" fill="#FF0000" transform="translate(0,0)"/>
<path d="" fill="#FFFF00" transform="translate(0,0)"/>
<path d="" fill="#FFFF00" transform="translate(0,0)"/>
<path d="" fill="#FFFF00" transform="translate(0,0)"/>
<path d="" fill="#FF0000" transform="translate(0,0)"/>
<path d="" fill="#FF0000" transform="translate(0,0)"/>
<path d="" fill="#FF0000" transform="translate(0,0)"/>
<path d="" fill="#AA5555" transform="translate(0,0)"/>
<path d="" fill="#FF0000" transform="translate(0,0)"/>
<path d="" fill="#FF0000" transform="translate(0,0)"/>
<path d="" fill="#FF0000" transform="translate(0,0)"/>
<path d="" fill="#FF0000" transform="translate(0,0)"/>
<path d="" fill="#FF0000" transform="translate(0,0)"/>
<path d="" fill="#FF0000" transform="translate(0,0)"/>
<path d="" fill="#FF7F7F" transform="translate(0,0)"/>
<path d="" fill="#FF0000" transform="translate(0,0)"/>
<path d="" fill="#FF0000" transform="translate(0,0)"/>
<path d="" fill="#FF7F7F" transform="translate(0,0)"/>
<path d="" fill="#FF0000" transform="translate(0,0)"/>
<path d="" fill="#FF0000" transform="translate(0,0)"/>
<path d="" fill="#FF7F7F" transform="translate(0,0)"/>
<path d="" fill="#FF0000" transform="translate(0,0)"/>
<path d="" fill="#FF0000" transform="translate(0,0)"/>
<path d="" fill="#FF0000" transform="translate(0,0)"/>
<path d="" fill="#FF7F7F" transform="translate(0,0)"/>
<path d="" fill="#FF0000" transform="translate(0,0)"/>
<path d="" fill="#FF0000" transform="translate(0,0)"/>
<path d="" fill="#FFFF00" transform="translate(0,0)"/>
<path d="" fill="#FF0000" transform="translate(0,0)"/>
<path d="" fill="#FF0000" transform="translate(0,0)"/>
<path d="" fill="#FF0000" transform="translate(0,0)"/>
<path d="" fill="#FFFF00" transform="translate(0,0)"/>
<path d="" fill="#FF0000" transform="translate(0,0)"/>
<path d="" fill="#FFFF00" transform="translate(0,0)"/>
<path d="" fill="#BF7F3F" transform="translate(0,0)"/>
<path d="" fill="#FF0000" transform="translate(0,0)"/>
<path d="" fill="#FFFF00" transform="translate(0,0)"/>
<path d="" fill="#FF0000" transform="translate(0,0)"/>
<path d="" fill="#FF7F00" transform="translate(0,0)"/>
<path d="" fill="#FFFF00" transform="translate(0,0)"/>
<path d="" fill="#FFFF00" transform="translate(0,0)"/>
<path d="" fill="#FF7F7F" transform="translate(0,0)"/>
<path d="" fill="#FF7F00" transform="translate(0,0)"/>
<path d="" fill="#FF0000" transform="translate(0,0)"/>
<path d="" fill="#FFFF00" transform="translate(0,0)"/>
<path d="" fill="#FFFF00" transform="translate(0,0)"/>
<path d="" fill="#FF7F00" transform="translate(0,0)"/>
<path d="" fill="#FF0000" transform="translate(0,0)"/>
<path d="" fill="#BF7F3F" transform="translate(0,0)"/>
<path d="" fill="#FF0000" transform="translate(0,0)"/>
<path d="" fill="#FF0000" transform="translate(0,0)"/>
<path d="" fill="#FFFF00" transform="translate(0,0)"/>
<path d="" fill="#FF0000" transform="translate(0,0)"/>
<path d="" fill="#FF0000" transform="translate(0,0)"/>
<path d="" fill="#FF0000" transform="translate(0,0)"/>
<path d="" fill="#AA5555" transform="translate(0,0)"/>
<path d="" fill="#FF7F00" transform="translate(0,0)"/>
<path d="" fill="#FF0000" transform="translate(0,0)"/>
<path d="" fill="#AA5555" transform="translate(0,0)"/>
<path d="" fill="#FFFF00" transform="translate(0,0)"/>
<path d="" fill="#FF0000" transform="translate(0,0)"/>
<path d="" fill="#FFFF00" transform="translate(0,0)"/>
<path d="" fill="#FFFF00" transform="translate(0,0)"/>
<path d="" fill="#FF0000" transform="translate(0,0)"/>
<path d="" fill="#FFFF00" transform="translate(0,0)"/>
<path d="" fill="#FFFF00" transform="translate(0,0)"/>
<path d="" fill="#FFFF00" transform="translate(0,0)"/>
<path d="" fill="#FFFF00" transform="translate(0,0)"/>
<path d="" fill="#FFFF00" transform="translate(0,0)"/>
<path d="" fill="#FFFF00" transform="translate(0,0)"/>
<path d="" fill="#FFFF00" transform="translate(0,0)"/>
<path d="" fill="#FF0000" transform="translate(0,0)"/>
<path d="" fill="#FF0000" transform="translate(0,0)"/>
<path d="" fill="#FF7F7F" transform="translate(0,0)"/>
<path d="" fill="#FF0000" transform="translate(0,0)"/>
<path d="" fill="#AA5555" transform="translate(0,0)"/>
<path d="" fill="#AA5555" transform="translate(0,0)"/>
<path d="" fill="#FF0000" transform="translate(0,0)"/>
<path d="" fill="#FF0000" transform="translate(0,0)"/>
<path d="" fill="#FF7F7F" transform="translate(0,0)"/>
<path d="" fill="#FF0000" transform="translate(0,0)"/>
<path d="" fill="#FFFF00" transform="translate(0,0)"/>
<path d="" fill="#FF0000" transform="translate(0,0)"/>
<path d="" fill="#FF0000" transform="translate(0,0)"/>
<path d="" fill="#AA5555" transform="translate(0,0)"/>
<path d="" fill="#FF7F7F" transform="translate(0,0)"/>
<path d="" fill="#FF0000" transform="translate(0,0)"/>
<path d="" fill="#FF0000" transform="translate(0,0)"/>
<path d="" fill="#FF0000" transform="translate(0,0)"/>
<path d="" fill="#FF0000" transform="translate(0,0)"/>
</svg>
